<?xml version="1.0" encoding="UTF-8"?><svg id="Laag_1" xmlns="http://www.w3.org/2000/svg" viewBox="0 0 575.87 382.83"><defs><style>.cls-1,.cls-2,.cls-3,.cls-4,.cls-5{stroke:#000;stroke-miterlimit:10;}.cls-1,.cls-3{fill:none;}.cls-1,.cls-3,.cls-4{stroke-linecap:round;}.cls-3{stroke-width:2px;}.cls-5{fill:#fff;}</style></defs><rect class="cls-5" x=".5" y=".5" width="574.87" height="381.83"/><path d="m90.19,124.04c-2.18-.19-3.8-1.57-5.43-2.76-4.85-3.75-8.63-8.81-11.06-14.43-3.29-7.51-4.06-16.41-.99-24.13,4.5-11.48,14.74-20.38,26.57-23.67,7.89-2.35,17.13-.98,23.3,4.68,7.59,6.72,12.69,17.15,11.57,27.45-.78,6.62-6.09,11.91-12.14,14.18-6.34,2.47-14.14,2.37-19.71-1.86-2.91-2.12-4.84-5.39-5.9-8.75-.83-2.05-.31-4.08-2.14-5.81-1.46-1.43.63-3.65,2.15-2.27.59.56.64,1.49.14,2.12-.83,1.02-.81,2.05-.55,2.99.67,2.82,1.93,5.6,3.89,7.71,5.24,5.69,14.09,5.18,20.65,2.31,18.98-7.68,10.49-32.01-4.08-39.54-18.93-8.46-44.13,12.77-42.82,32.51.54,8.5,4.36,16.84,10.33,22.93,1.32,1.39,2.81,2.59,4.37,3.69.38.31,3.33,2.35,1.84,2.65h0Z"/><path class="cls-4" d="m87.53,122.6s37.99-.17,38.06.04-2.41,3.76-2.41,3.76c0,0-3.83-1.63-5.95,1.84-2.13,3.47-13.46,32.6-13.46,32.6l-11.76-2.98,12.12-28.49s1.14-2.42.17-3.41c-.36-.37-.88-.4-1.16-.42-3.08-.16-6.74-.25-7.32-.26"/><path class="cls-1" d="m95.8,125.28s-3.21-.24-7.44-2.2"/><path class="cls-4" d="m94.21,153.08s-6.45,12.45-9.24,13.49l-1.7.04-1.03,2.37h19.98l.57-2.52s-2.61.02-4.11,0c-.4,0-.73-.16-.9-.29-.46-.37-.62-1.99,4.2-10.25"/><path d="m93.63,184.93c-.85.11-1.82.28-2.71.15-.6.34-1.28.54-1.93.54-1.31-.03-2.54-.02-3.82-.34-7.32-2.31-9.92-13.16-8.38-19.91,2.91-12.09,15.86-21.16,27.26-24.34,3.72-.96,7.91-1.17,11.61.24,4.81,2.05,9,6.3,10.15,11.53,1.56,10.16-10.83,15.59-19.22,14.26-.62-.07-.55-1,.06-1,4.8.05,9.67-1.24,13.23-4.2,6.52-5.24,3.88-12.44-2.14-16.75-3.74-2.82-8.69-2.92-13.12-1.76-10.69,3.02-22.85,11.27-25.7,22.5-1.41,5.62,1.04,15.87,6.49,18.66,1.53.59,3.58.6,5.07-.13.18-.76.08-1.47.07-2.26-.03-1.59,1.23-2.91,2.82-2.95,3.76.01,3.95,5.46.23,5.78h0Z"/><polyline class="cls-1" points="103.9 160.41 101.87 166.41 108.28 166.63"/><rect class="cls-4" x="97.95" y="163.34" width="3.5" height="2.46"/><rect class="cls-4" x="98.85" y="160.42" width="3.5" height="3.61" transform="translate(-87.09 197.01) rotate(-68.69)"/><path class="cls-1" d="m79.59,113.14c.87,1.64,2.4,3.95,4.96,5.95,5.93,4.64,12.84,4.03,14.6,3.83"/><path class="cls-4" d="m102.15,169.01c.14,0,20.03-.09,20.03-.09l3.21-13.46s-4.31,10-8.94,9.48c0,0-8.09,4.32-15.5,1.01l1.19,3.07Z"/><circle class="cls-4" cx="94.43" cy="182.14" r="6.52"/><path d="m134.21,199.85c7.03,1.75,10.26-8.38,7.28-13.73-2.74-6.29-10.86-7.12-16.52-4.5-13.83,5.72-9.24,26.05,4.2,28.85,13.25,2.84,25.45-6.19,33.79-15.62,3.62-4.34,8.35-11.24,11.83-15.83,0,0,11.73-15.96,11.73-15.96,0,0-.03.56-.03.56l-4.21-7.16s.81-.59.81-.58c1.62,1.78,3.57,3.25,5.74,4.23,2.17,1.06,5.1,1.41,7.11,1.65,11.53,2.22,24.41,7.44,29.07,19.15,2.61,7.06.78,15.26-3.76,21.14-6.26,8.4-18.6,9.7-26.99,3.78-6.1-4-10.63-12.28-7.48-19.47.62-1.73,1.53-3.26,2.3-4.9.18-.57.33-1.27.04-2.09-.42-1.18.19-2.47,1.37-2.89,3.06-.98,4.33,3.65,1.17,4.35-1.71.19-2.44,1.06-3.02,2.41-1.53,3.1-1.27,6.84-.49,10.02,3.09,14,22.4,19.18,31.32,7.39,5.56-7.04,6.44-17.89.24-24.84-5.15-6.32-13.02-9.67-20.74-11.84-1.02-.29-2.13-.56-3.17-.77-2.25-.32-5.25-.77-7.52-1.95-2.3-1.13-4.32-2.77-5.95-4.7,0,0,.81-.58.8-.59,0,0,4.23,7.15,4.23,7.15,0,0,.17.29.17.29l-.2.27-11.69,16c-3.45,4.58-8.21,11.58-11.86,15.91-4.42,4.99-9.51,9.43-15.37,12.66-12.44,6.84-29.34,5.24-32.59-10.85-1.55-7.03,2.04-13.98,8.72-16.71,4.61-2.01,10.51-2.24,14.68.95,4.02,3.27,5.64,9.31,3.36,14.06-.67,1.42-2.28,2.72-3.4,3.78-1.28,1.22-2.71,2.41-4.31,3.83-.84.75-2.13.67-2.88-.17-1.39-1.54.27-3.98,2.2-3.28h0Z"/><path d="m166.62,173.67c1.12-.61,1.6-1.77,1.51-2.86-.46-3.53-5-4.31-7.99-3.84-4.34.81-7.76,5.2-7.52,9.62.13,4.58,4.31,8.05,8.58,8.89,4.37.79,9.21-1.05,12.1-4.41.42-.5,1.19.14.77.64-3.16,3.68-8.25,5.66-13.07,4.82-4.74-.94-9.27-4.8-9.42-9.89-.45-7.77,8.86-14.06,15.41-9.16,2.07,2.01,1.88,4.43,2.46,7.24.35,1.14-.29,2.39-1.49,2.62-2.2.44-3.28-2.61-1.34-3.67h0Z"/><path class="cls-4" d="m177.89,175.24l-2.79-48.9s0-3.4-4.58-2.5l1.8-2.69,18.28-.19.99,3.45s-2.46-1.7-4.44.85l1.51,29.95,20.13-29.1s2.74-2.46-2.03-2.31h-2.27l.05-2.74,13.56.05.09,2.46h-3.45s-1.8-.66-3.73,2.03-20.46,31.32-20.46,31.32l-2.08,2.98-4.58-2.22.28,1.37,2.22,4.35-8.5,11.86Z"/><circle class="cls-4" cx="106" cy="198.84" r="1.39"/><circle class="cls-4" cx="102.51" cy="204.13" r="2.72"/><path d="m212.57,160.5c4.6-14.32,10.92-29.51,16.1-43.66,3.84-9.9,7.29-19.59,12.69-28.97,2.61-4.73,6.8-8.88,10.74-12.56,9.7-9.55,24.35-18.41,38.44-12.84,10.8,3.86,20.65,13.69,20.2,25.82-.09,14.61-13.01,28.52-28.17,26.1-11.24-1.65-21.55-11.09-21.35-23,.35-6.13,4.62-10.88,8.34-13.98,1.39-1.36,3.51.51,2.31,2.04-5.29,5.71-8.97,10.93-5.16,18.64,5.01,10.42,19.77,15.33,29.21,7.93,7.07-5.23,10.73-15.93,7.28-24.08-3.38-7.88-12.87-13.6-21.46-13.76-9.25.22-17.4,6.54-23.91,13.02-3.37,3.38-6.82,6.71-9.05,11-4.66,8.63-8.17,18.46-11.62,27.8-3.08,8.49-7.76,20.39-11.07,28.91-1.87,4.78-3.73,9.6-5.38,14.3-1.96,5.17-9.65,2.72-8.15-2.69h0Z"/><circle class="cls-4" cx="277.36" cy="75.35" r="2.43"/><path class="cls-4" d="m228.09,170.05h14.07c.38-.93.76-1.87,1.13-2.8-1.42.93-3.2.86-4.32-.11-1.14-.98-.41-2.79-.4-3.02,1.95-4.93,3.17-9.52,5.11-14.44-.81-.27-1.63-.54-2.44-.81-2.27,5.67-4.54,11.34-6.8,17.01-.07.15-.67,1.29-1.98,1.56-1.08.22-2.22-.24-2.91-1.17-.48,1.26-.97,2.53-1.45,3.79Z"/><path class="cls-4" d="m225.54,148.29c-1.89,5.21-3.91,10.69-5.8,15.9-.28,1.02.06,2.09.85,2.69.94.71,2.33.64,3.26-.24-.27,1.09-.54,2.17-.8,3.26h-19.42c.06-.72.13-1.45.19-2.17.17.08,1.8.81,3.45-.09,1.45-.79,2.08-1.91,2.13-2.14,2.57-6.38,9.42-21.49,11.99-27.87l4.15,10.67Z"/><path class="cls-4" d="m153.72,138.28c-1.89,5.21-8.54,20.72-10.43,25.93-.28,1.02.06,2.09.85,2.69.94.71,2.33.64,3.26-.24-.27,1.09-.54,2.17-.8,3.26h-19.42c.06-.72.13-1.45.19-2.17.17.08,1.8.81,3.45-.09,1.45-.79,2.08-1.91,2.13-2.14,2.57-6.38,9.42-21.49,11.99-27.87l8.78.63Z"/><path class="cls-4" d="m296.52,204.2c-1.89,5.21-10.52,22.72-12.41,27.93-.28,1.02.06,2.09.85,2.69.94.71,2.33.64,3.26-.24-.27,1.09-.54,2.17-.8,3.26h-19.42c.06-.72.13-1.45.19-2.17.17.08,1.8.81,3.45-.09,1.45-.79,2.08-1.91,2.13-2.14,2.57-6.38,11.25-27.11,13.83-33.49l8.93,4.25Z"/><path class="cls-4" d="m347.4,188.47c-1.89,5.21-16.19,38.71-18.08,43.92-.29,1.02.06,2.09.85,2.69.94.71,2.33.64,3.26-.24-.27,1.09-.54,2.17-.8,3.26h-19.42c.06-.72.13-1.45.19-2.17.17.08,1.8.81,3.45-.09,1.45-.79,2.08-1.91,2.13-2.14,2.57-6.38,16.4-38.66,18.97-45.04l9.45-.19Z"/><path class="cls-4" d="m281.35,121.36h10.28c-.26.78-.52,1.56-.78,2.34-.24-.11-1.14-.51-2.27-.21-1.1.29-1.52,1.81-1.65,2.06-1.32,3.64-2.84,6.5-4.16,10.13-.83-.33-1.65-.66-2.48-.99,1.44-3.21,2.88-6.43,4.32-9.64.15-.42.23-.89-.04-1.26-.37-.51-1-.46-1.03-.46l-2.43.09c.08-.69.15-1.37.23-2.06Z"/><path class="cls-4" d="m321.15,152.43h10.28c-.26.78-.52,1.56-.78,2.34-.24-.11-1.14-.51-2.27-.21-1.1.29-1.52,1.81-1.65,2.06-1.32,3.64-3.76,2.72-2.32-.5.15-.42.23-.89-.04-1.26-.37-.51-1-.46-1.03-.46l-2.43.09c.08-.69.15-1.37.23-2.06Z"/><path class="cls-4" d="m275.26,188.96c-1.56,4.4-3.12,8.8-4.69,13.2-.88-.69-1.77-1.38-2.65-2.07.25-.25,1.18-1.23,1.31-2.82.13-1.55-1.56-3.2-4.74-5.03-4.89-2.92-7.12-4.71-2.02-4.07.61.08,7.61,3.99,8.2,3.82.82-.24,1.05-1.07,1.06-1.11l.99-3.16c.84.41,1.69.82,2.53,1.23Z"/><path d="m143.18,150.32c-1.81-2.05-2.14-3.37-2.02-4.5.21-.88.84-2.14,1.17-3.01,0,0,2.42-5.98,2.42-5.98,6.29-15.8,12.5-31.99,17.33-48.26,2.35-7.99,2.25-16.13,1.54-24.3-.33-4.11-.82-8.3-2.07-12.33-4.04-12.05-13.37-21.95-24.37-28.11-7-3.87-14.82-6.23-22.75-7.2-13.37-1.54-26.92,1.9-38.65,8.36-15.32,8.07-27.17,21.72-32.32,38.31-4.59,15.51-3.97,35,3.33,49.56,1.97,3.77,4.4,6.77,7.51,9.79,3.15,3.21,5.94,7.09,7.49,11.38,1.46,4.3,2.43,8.95,1.43,13.47-1.9,9.27-12.23,13.99-20.96,12.76-3.25-.41-6.57-1.55-8.94-3.91-3.84-4.04-5.49-10.28-3.52-15.61,1.06-3.32,3.79-5.52,6.29-7.7,1.04-.88,1.76-1.45,1.89-3.07.27-3.38,5.17-3.04,5.02.3-.1,1.39-1.3,2.43-2.69,2.33-.87-.18-1.98-.56-2.64-.18-3.3,1.81-4.96,5.63-6.37,8.88-3.45,8.84,1.17,17.69,11.02,18.4,6.29.65,13.11-1.69,16.87-6.87,3.89-5.24,2.43-12.15-.24-17.59-2.69-5.92-8.1-9.6-12.16-14.65-1.39-1.83-2.61-3.79-3.67-5.81-7.62-15.11-7.2-36.43-1.74-52.16,4.48-12.4,12.07-23.88,22.58-31.92,13.88-10.65,31.34-17.41,49.03-16.09,17.62,1.24,34.98,9.82,45.51,24.26,5.13,7.39,9.34,15.54,11.8,24.27,2.16,8.93,2.11,18.53.21,27.43-.94,4.46-2.11,8.75-3.36,12.95-4.18,14.78-10.05,29.13-16.79,42.91-.46.83-.94,2.17-1.52,2.92-.78.85-2.03,1.49-4.76,1.41-.36-.01-.68-.18-.91-.42h0Z"/><path d="m210.58,227.24c-2.43,1-3.26,2.54-4.74,4.29-1.5,1.53-3.59,2.34-5.65,2.82-11.52,1.91-22.3-8.73-22.82-19.94-.49-7.59,5.71-13.49,12.27-16.05,9.04-3.59,20.03-3.93,28.56,1.23,7.19,4.63,11.31,12.41,15.21,19.57,1.96,3.66,3.65,7.46,5.02,11.39.95,3.01-3.41,4.54-4.53,1.57-.71-2.56-1.51-5.09-2.51-7.56-3.12-7.02-6.44-14.55-12.01-19.93-7.51-7.19-19.45-7.31-28.75-3.85-5.77,2.15-11.3,6.97-11,13.55.31,10.06,9.91,19.82,20.25,18.33,1.89-.3,3.61-1.13,5.3-2.03,1.89-.8,3.62-2.28,3.22-4.7-.16-.91.44-1.77,1.35-1.94,2.02-.34,2.74,2.55.83,3.22h0Z"/><path d="m245.39,245.44c-1.79.69-1.78,2.28-2.62,3.7-2.21,4.68-8.14,6.73-12.76,4.13-9.01-4.26-8.7-18.02-.33-22.93,3.42-1.91,7.79-1.21,11.16-.16.63.18,1.56.49,2.17.7,1.09.32,2.47,1.2,3.43,1.42,1.86.35,4.51.2,5.97-.97,2.5-2.16,3.03-6.58,2.04-9.75-.83-2.19-1.51-2.2-3.66-4.06-1.97-1.59-3.95-4.09-4.98-6.54-1.08-2.37-1.8-4.81-1.99-7.49-.68-7.75,4.85-15.64,12.65-16.76,4.86-.78,12.93,3.36,14.99,7.83.19.39-.17.85-.59.77-4.63-.79-8.83-4.85-13.6-3.26-2.86,1.29-4.62,4.52-4.84,7.55-.13,2.49.77,4.95,2,7.15,1.58,2.99,3.66,3.51,6.33,6.32,2.68,2.89,3.98,7.02,4.04,10.85.39,7.56-4.32,16.28-12.49,17.4-3.74.58-7.92.2-11.09-1.79-.75-.47-1.39-.79-2.19-1.11-1.81-.72-4.27-1.8-5.91-1.39-2.25.98-3.67,4.45-3.43,6.89.18,3.11,2.95,5.23,5.76,6.12,2.21.8,4.94.41,6.71-1.41.91-1.06,2.32-2.28.91-3.78-.88-.89-.88-2.32.01-3.21,2.8-2.42,5.73,2.29,2.34,3.76h0Z"/><circle class="cls-4" cx="257.73" cy="246.77" r="2.08"/><circle class="cls-1" cx="256.41" cy="174.49" r="1.98"/><circle class="cls-1" cx="400.88" cy="124.13" r="2.65"/><circle class="cls-1" cx="407.68" cy="117.89" r="1.32"/><circle class="cls-1" cx="348.06" cy="179.59" r="1.61"/><path d="m244.19,135.53c-.73.09-1.1.43-1.58.72-1.42.94-3.66.95-4.58-.7-2.6-5.2,3.36-9.84,8.14-6.84,2.22,1.39,3.36,4.32,2.69,6.91,0,0-2.79,8.58-2.79,8.58l-1.43,4.28c-.48,1.42-.97,2.84-1.59,4.22-.4.89-1.44,1.28-2.32.88-.82-.37-1.22-1.3-.96-2.14.43-1.44.99-2.84,1.56-4.23,1.07-2.64,4.07-9.77,5.22-12.49.39-.9.07-3.5-1.44-4.5-2.13-1.77-6.1-.85-6.71,2.13-.61,1.89.27,4.46,2.61,4.13.95-.17,2.34-.46,2.47-1.66.02-.37.33-.66.7-.64.84.04.84,1.3,0,1.34h0Z"/><path d="m319.32,237.24c.1.77-.47,1.67-.72,2.36,0,0-.94,2.26-.94,2.26-1.15,2.84-4.43,10.58-5.68,13.51-2.07,4.48-3.43,9.24-5.65,13.63-1.55,3.11-3.53,6.36-6.89,7.95-4.74,2.08-12.24,1.38-14.49-3.95-1.17-3.69,1.05-7.32,3.99-9.27,2.6-1.72,5.65-1.57,8.54-.91.22.03.74.15.95.21.11.02.2.09.35.02.46-.18.98.04,1.17.5.41,1-1.04,1.72-1.6.81-.94-1.49-2.93-1.78-4.56-1.63-5.83.1-10.88,9.6-4.02,12.17,4.05,1.53,9.13.6,11.57-3.23,1.7-2.42,3.06-5.54,4.09-8.35,2.03-6.25,4.66-12.28,7.34-18.27.65-1.4,2.45-5.3,3.09-6.67.32-.6.63-1.7,1.26-2.12.83-.62,2.11-.05,2.21.98h0Z"/><path d="m308.91,262.66c-.69,2.96-.55,6.4-.41,9.46.18,2.38.42,4.8,1.24,7,5.61,13.59,20.62,19.56,32.98,10.75,6.94-5.27,11.85-17.48,3.71-23.85-4.61-4.13-12.09-4.69-15.86.83-2.74,3.76-3.04,9.44-.52,13.48.1.19.25.37.32.6.11.25-.19.72-.5.65-.38-.05-.54-.28-.8-.48-6.68-6.29-8.41-14.07-3.57-22.1,1.32-2.09,3.15-4.04,4.8-5.87.59-.61,1.23-1.18,1.29-2.41.15-1.92,3.05-1.76,2.95.2-.05.81-.76,1.43-1.57,1.38-1.18-.16-1.82.49-2.39,1.1-.59.59-1.12,1.22-1.62,1.88-2.75,3.96-5,8.62-4.97,13.51-.06,4.6,2.77,8.81,6.04,11.86,0,0,.03.02.03.02,0,0,0-.02-.13-.03-.27-.07-.55.36-.45.56-.97-1.6-1.67-3.35-2.07-5.18-1.18-5.09.71-11.23,5.39-14.09,6.56-3.96,15.29.11,18.82,6.28,2.83,4.8,1.67,10.98-.74,15.56-4.5,9.78-16.45,14.77-26.71,11.88-6.85-1.84-12.24-7.16-15.5-13.27-1.77-3.04-2.28-6.67-2.5-10.1-.15-2.56-.17-5.12.07-7.68.17-1.06.09-3.95,1.98-3.5.65.21.97.94.71,1.57h0Z"/><path d="m530.05,263.88c1.65.13,2.17-.83,2.83-1.95,1.13-1.89,1.97-3.96,2.39-6.11,1.68-7.71-4.39-14.42-11.22-16.96-10.49-4.35-21.4-.03-24.95,10.96-8.29,23.92,19.3,38.23,39.39,30.93,11.85-4.37,20.38-16.52,20.58-29.13.25-13.21-10.04-23.5-20.74-29.86-14.62-8.94-33.53-12.05-49.77-6.01-12.39,4.39-20.95,15.95-23.91,28.51-2.56,10.33-1.84,22.11,5,30.68,5.03,6.03,7.27,12.01,5.26,19.88-3.35,16.34-25.32,21.04-34.98,7.48-2.86-4.09-4.09-9.48-2.44-14.22.95-2.89,2.45-5.31,4.13-7.67.64-.97,1.47-1.7,1.81-2.87.19-.58.31-1.36.18-2.33-.2-1.75,1.05-3.33,2.79-3.54,4.21-.38,4.88,5.75.74,6.33-.31.04-.63.02-.92-.03-2.49-.41-3.36,1-4.24,2.65-2.35,4.22-1.64,9.41-.52,13.78.46,1.88,1.2,3.68,2.3,5.22,4.41,6.45,14.27,7.68,20.72,3.57,6.58-4.04,9.5-14.04,6.15-21.11-1.88-3.85-5.16-7.3-6.82-11.45-5.34-12.77-2.95-27.73,3.55-39.6,13.94-25.62,50.18-26.41,72.75-12.29,11.78,6.8,22.8,18.43,22.5,32.89-.2,14.07-9.67,27.56-22.89,32.44-15.68,5.71-36.67-.31-43.63-16.23-2.4-6.08-2.11-12.98.06-19.08,3.8-11.08,14.35-16.62,25.6-13.55,13.86,3.95,18.93,16.24,10.47,28.26-.23.53-.33,1.29-.08,2.19.29,1.26-.49,2.51-1.74,2.81-3.54.62-3.9-4.69-.35-4.61h0Z"/><path d="m562.62,249.51c.75,15.89-.51,33.26-8.85,47.56-18.57,31.55-58.73,41.76-93.13,38.62-27.32-3.06-52.13-18.29-70.01-38.77-4.36-4.99-8.36-10.2-11.93-15.99l-9.38-16.83c-6.21-11.16-12.47-22.29-18.8-33.4-1.78-3.12-.7-7.1,2.43-8.88,3.25-1.87,7.47-.56,9.09,2.82,6.85,14.21,14.04,28.68,21.06,42.85,13.96,30.46,42.58,55.36,76.2,60.6,12.19,1.88,24.76,1.16,36.88-.88,21.18-3.52,41.92-14.04,53.4-32.67,8.15-13.37,9.69-29.52,9.44-44.95-.03-2.3,3.47-2.48,3.6-.09h0Z"/><path d="m349.2,188.84c.36-1.41.93-1.46,1.45-1.65.53-.17,1.07-.19,1.61-.17,3.58,0,7.34.1,10.48,2.31,7.51,4.98,5.5,15.47.97,21.69-2.81,4.03-7.35,6.88-12.04,7.84-1.68.4-3.36.54-5.07.59-.53.12-1.19-.07-1.99-2.9-.09-.33-.13-.67-.1-.99.17-2.92.47-3.25.9-3.29,5.22-2.01,9.91-5.69,11.86-11.01.47-1.3.74-2.56.83-3.52.09-.98.15-1.8-.39-2.88-.78-1.69-3.5-3.28-5.64-3.38-.43-.02-.86-.05-1.3-.19-.45-.17-.85-.15-1.45-1.46-.16-.31-.19-.67-.11-.99h0Z"/><path d="m342.27,211.71c4.58.56,9.57,1.78,13.19,4.86,3.58,2.91,6,6.75,7.68,10.83,3.05,6.83-6.17,12.13-10.55,6.14-3.5-4.83-5.05-10.13-7.62-15.39-.93-1.84-2-3.69-3.22-5.58-.26-.37.07-.91.51-.86h0Z"/><path d="m340.24,194.51c1.52-5.18,6.17-7.38,11.23-7.17,1.06-.02,2.12-.08,3.1.38.34.13.66.42.92,1.39.12.32-.12.69-.23.97-.59,1.32-.96,1.16-1.9,1.35-3.7-.02-7.43.29-8.54,4.41-.92,3.05-5.44,1.75-4.58-1.33h0Z"/><path class="cls-4" d="m335.28,195.3c.5-1.37,1.05-3.06.26-4.09-.9-1.18-2.65-1.51-4.02-.66l1.42-3.02h19.89"/><path class="cls-4" d="m337.42,123.71c-1.59,3.66-3.05,6.94-4.64,10.6-.71-.64-1.43-1.28-2.14-1.92.23-.2,1.08-.98,1.28-2.33.2-1.31-.94-2.38-1.32-2.79-4.63-3.55-3.45-6.18,1.49-2.18.38.36.85.66,1.36.55.71-.15.96-.85.97-.89l1.03-2.64c.7.4,2.42.47,1.97,1.59Z"/><path d="m329.99,127.42c-3.6-2.38-8.3-3.98-12.71-3.56-7.1.87-13.26,6.16-15.8,12.73-2.36,6.62-3.24,13.91-.71,20.58,3.02,7.88,10.32,10.88,17.19,5.31,3.21-2.4,6.01-5.71,7.6-9.36.91-1.99,3.91-.67,3.05,1.35-3.77,8.05-12.26,17.53-22.11,15.34-7.55-1.81-14.36-7.75-16.58-15.27-3.94-14.5,9.12-30.17,22.59-33.85,4.58-1.26,9.55-.78,13.96.81,1.99.72,3.98,1.6,5.62,3.03.27.26.58.54.72,1.05.11.39-.1.79-.47.94l-2.37.91h0Z"/><path d="m369.26,86.12c-1.94.99-1.16,2.66-1.1,4.25.9,7.42,8.85,12.55,15.99,11.15,12.1-2.24,13.66-19.23,4.58-26.04-6.94-5.96-16.22-1.12-22.54,3.55-4.64,3.52-8.3,8.19-11.68,13.14-6.81,9.86-12.62,20.35-16.59,31.63-.31.89-1.29,1.36-2.18,1.04-.92-.32-1.39-1.37-1.01-2.27,4.56-11.28,10.42-22.1,17.48-31.99,5.1-7.67,11.43-15.07,19.98-19.04,2.84-1.33,5.92-2.49,9.42-2.51,6.97.25,12.79,5.36,15.07,11.68,4.84,13.83-7.41,28.04-21.46,20.73-4.91-2.49-8.17-7.77-7.85-13.3.06-.77-.01-1.51-.89-2.46-1.01-.98-1.01-2.63.04-3.59,2.86-2.37,5.98,2.24,2.73,4.02h0Z"/><path d="m335.83,104.3c-1.78-.71-2.79-.3-4.43-.15-2.81.35-6.08-.68-7.68-3.24-2.53-3.88-2.02-9.62,1.87-12.55,5.01-3.75,12.41-1.67,16.15,2.81,6.58,6.95,3.82,16.52-1.35,23.32-.36.5-1.14,0-.84-.53,1.31-2.36,2.47-4.72,3.17-7.22,1.02-3.59,1.12-7.58-.57-10.96-1.67-3.2-4.74-6.05-8.32-6.66-6.77-1.38-11.29,4.54-8.16,10.63,1.23,2.87,4.5,5.01,7.69,3.92.61-.26,1.21-.75,1.41-1.67.65-2.67,4.59-1.81,4.07.89-.28,1.35-1.8,2.01-3.02,1.42h0Z"/><path d="m386.08,146.14c-.4-2.13-1.98-2.81-3.45-3.14-1.49-.4-3.06-.53-4.58-.39-3.07.26-5.92,1.58-8.22,3.36-2.33,1.77-4.14,4.16-5.14,6.83-1.02,2.67-1.24,5.58-.64,8.27.29,1.26.83,2.66,1.45,3.89.64,1.24,1.4,2.39,2.3,3.38.91.98,1.92,1.82,3.08,2.43,1.16.58,2.42,1.02,3.74,1.2,1.32.17,2.69.17,4.05-.04,1.36-.23,2.71-.63,4-1.22,2.62-1.14,4.95-3.01,6.97-5.3h.01s.88.45.88.45c-.98,1.84-2.08,3.54-3.34,5.16-1.25,1.62-2.68,3.11-4.31,4.38-1.63,1.26-3.44,2.32-5.39,3.07-1.94.78-4.04,1.13-6.14,1.23-4.24.2-8.43-1.3-11.91-3.6-3.47-2.36-6.36-5.49-8.52-9.09-2.18-3.61-3.32-7.85-3.44-12.06-.11-4.23.77-8.4,2.32-12.3,1.62-3.9,4.08-7.47,7.24-10.29,3.15-2.83,6.85-4.99,10.87-6.36.99-.34,2.08-.63,3.13-.81,1.05-.19,2.1-.33,3.15-.41,2.11-.16,4.23-.11,6.33.14,2.11.24,4.19.71,6.2,1.43,1.02.32,1.98.78,2.97,1.21.48.24.94.5,1.42.75.48.24.94.51,1.38.82,3.63,2.26,6.69,5.46,8.87,9.11,1.1,1.83,1.99,3.76,2.72,5.72.36.99.7,1.95,1,2.94.28,1.01.58,2.02.84,3.04,1.93,8.24.88,16.93-2.08,24.67-2.92,7.79-8.45,14.68-15.43,18.95-.24.15-.55.07-.69-.17-.13-.21-.09-.47.08-.63,5.83-5.48,10.39-11.95,13.02-19.3,2.71-7.27,3.66-15.27,1.87-22.78l-.78-2.78c-.28-.94-.62-1.88-.95-2.78-.68-1.81-1.49-3.54-2.47-5.17-1.92-3.26-4.57-6.07-7.76-8.09-.38-.28-.79-.52-1.21-.73-.41-.22-.82-.46-1.24-.68-.87-.38-1.71-.8-2.62-1.09-1.78-.65-3.64-1.09-5.53-1.32-1.89-.24-3.81-.29-5.72-.17-.95.06-1.91.17-2.84.32-.94.15-1.81.37-2.72.66-3.62,1.18-7.05,3.1-9.92,5.61-2.89,2.5-5.16,5.69-6.68,9.2-1.48,3.55-2.35,7.41-2.31,11.24.05,3.83,1.01,7.64,2.94,10.96,1.92,3.33,4.59,6.29,7.73,8.52,3.16,2.19,6.87,3.62,10.73,3.65,7.8.24,15.13-5.4,18.29-12.58l.88.47v.02c-1.31,2.95-3.54,5.59-6.41,7.39-2.85,1.81-6.37,2.81-9.91,2.45-1.77-.17-3.52-.65-5.13-1.47-1.61-.82-3.04-1.97-4.21-3.3-1.18-1.33-2.1-2.82-2.8-4.38-.72-1.58-1.2-3.14-1.49-4.93-.95-6.92,2.53-13.91,8.21-17.32,2.84-1.71,6.16-2.35,9.3-2.24,1.58.06,3.13.28,4.65.67,1.53.45,2.85.98,5.13.42l.19-.05c1.38-.33,2.76.51,3.1,1.89.33,1.38-.51,2.76-1.89,3.1s-2.76-.51-3.1-1.89c0-.04-.02-.09-.03-.13Z"/><path d="m413.15,137.04c-2.83.92-2.85,4.9-1.28,6.85,1.61,2.01,4.5,2.37,6.93,1.66,2.54-.67,4.2-2.83,4.68-5.34,1.8-9.08-7.65-13.68-14.84-9.44-3.75,3.42-4.48,9.57-4.48,14.42.04,1.58-2.34,1.67-2.41.07,0-5.55,1.25-14.05,6.64-16.93,5.09-2.32,12.04-1.39,15.29,3.56,2.4,3.87,2.34,9.19-.62,12.7-4.45,4.77-13.59,3.16-12.64-4.47.17-1.45.62-2.69.76-4.52,0-.91.75-1.65,1.67-1.58,1.71.13,1.93,2.57.3,3.02h0Z"/><path class="cls-2" d="m243.37,125.26c.43-1.04.85-2.08,1.28-3.12h14.47c1.37,2.65,2.73,5.29,4.1,7.94-3.26,1.39-6.52,2.79-9.78,4.18-.88-3.44-2.28-5.75-3.26-7.09-.91-1.24-1.59-1.85-2.48-2.2-1.85-.73-3.68,0-4.32.28Z"/><path d="m260.95,127.51c3.4,2.02,4.22,5.41,5.68,8.66,1.32,3.15,2.73,6.26,4.11,9.38,4.72,10.86,12.28,26.24,17.65,36.98.74,1.5,2.7,5.46,3.42,6.92,2.27,4.63,3.92,9.73,5.44,14.52-2.25,4.46-5.07,8.86-7.16,12.85,0,0-7.85-4.17-7.85-4.17,2.2-4.04,4.62-7.63,6.55-11.19,0,0-.02,4.03-.02,4.03-2.19-3.05-3.59-5.93-5.3-9.03-4.85-8.72-9.86-18.35-14.34-27.23-3.14-6.14-6.36-12.27-9.33-18.49-1.48-3.11-3.05-6.19-4.42-9.35-1.36-3.24-2.86-6.37-2.96-10.01,0,0,8.52-3.85,8.52-3.85h0Z"/><path class="cls-4" d="m286.03,188.37h30.51c1.43,1.01,3.42,2.66,5.24,5.14,1.25,1.7,2.85,3.86,3.3,6.52.93,5.52-3.53,10.33-5.46,12.4-.93,1-2.24,2.59-4.46,4.08-1.38.93-4.93,3.24-9.78,3.22-.03,0-.17,0-.33,0-1.97-.04-11.05-.5-12.85-6.59-1.05-3.55,1-10.19,4.52-13.31.17,1,.44,5.62,2.29,7.56,2.14,2.26,5.71,3.77,9.21,2.83,4.52-1.21,6.63-5.9,6.87-9.43.04-.56.39-7.13-4.75-9.78-4.04-2.08-8.96-.53-11.27,2.2-2.93,3.45-2.06,12.68-3.53,13.23-1.13.43-2.86-6.29-9.51-18.09Z"/><path class="cls-1" d="m299.35,207.75c-.71-1.02-2.19-3.44-2.34-6.84-.21-4.79,2.36-8.1,3.05-8.93"/><path d="m283.25,134.34c.25,1.22-.25,2.12-.62,3.08l-1.14,2.86c-1.12,2.86-3.45,8.57-4.66,11.39,0,0-2.49,5.63-2.49,5.63-1.03,2.24-4.42.88-3.6-1.45,2-5.35,4.82-11.86,7.16-17.1,0,0,1.25-2.81,1.25-2.81.43-.93.71-1.93,1.87-2.55.84-.54,2.02-.04,2.21.95h0Z"/><path class="cls-3" d="m398.88,181.88c-.05.69-.06,4.38,1.42,6.24,1.76,2.22,5.42,3.73,8.54,2.76"/><path class="cls-4" d="m458.8,195.56c.88-2.74,1.76-5.48,2.65-8.22-11.75.13-23.5.25-35.24.38-.25,1.01-.5,2.02-.76,3.02.79-.6,1.86-.63,2.65-.09.86.59,1.21,1.73.8,2.74-4.85,13.29-9.7,26.58-14.55,39.87-.18.37-.81,1.56-2.22,2.22-1.9.89-3.7.12-3.97,0l-1.42,3.26,42.09.14c1.31-3.5,2.61-6.99,3.92-10.49-1.17.02-2.33.03-3.5.05-.04.77-.24,2.41-1.37,4.02-1.87,2.66-4.82,3.13-5.39,3.21-5.87.13-11.75.25-17.62.38,2.65-8.13,5.29-16.25,7.94-24.38,9.2.08,18.39.16,27.59.24v-2.79h-27.12c2.52-6.43,5.04-12.85,7.56-19.28h13.61c.21-.03.97.15,1.67.69.79.6,1.18,1.48.83,2.57-.36.83-.72,1.67-1.09,2.5l2.93-.05Z"/><path class="cls-4" d="m411.69,195.09c.88-2.74,1.76-5.48,2.65-8.22-11.75.13-23.5.25-35.24.38-.25,1.01-.5,2.02-.76,3.02.79-.6,1.86-.63,2.65-.09.86.59,1.21,1.73.8,2.74-4.85,13.29-9.7,26.58-14.55,39.87-.18.37-.81,1.56-2.22,2.22-1.9.89-3.7.12-3.97,0l-1.42,3.26,42.09.14c1.31-3.5,2.61-6.99,3.92-10.49-1.17.02-2.33.03-3.5.05-.04.77-.24,2.41-1.37,4.02-1.87,2.66-4.82,3.13-5.39,3.21-5.87.13-11.75.25-17.62.38,2.65-8.13,5.29-16.25,7.94-24.38,9.2.08,18.39.16,27.59.24v-2.79h-27.12c2.52-6.43,5.04-12.85,7.56-19.28h13.61c.21-.03.97.15,1.67.69.79.6,1.18,1.48.83,2.57-.36.83-.72,1.67-1.09,2.5l2.93-.05Z"/><path d="m485.08,168.25c1.43-.08,2.36-1.17,2.7-2.32,1.27-3.67-2.71-6.06-5.78-6.62-2.13-.42-4.15.47-5.56,2.13-9.28,11.99,8.41,16.68,17.32,18.64,6.74,2.62,9.33,11.67,6.12,17.96-3.95,7.35-12.8,9.53-20.12,12.01-7.44,2.06-15.36,3.17-23.02,1.81-.01,0-2.61-.39-2.62-.39,0,0,2.34-1.55,2.34-1.55,4.43-2.99,11.62-.61,13.53,4.54,2.87,6.46-5.82,14.45-11.43,9.03-2.7-2.45-1.58-6.02,1.56-7.37,1.11-.54,1.99,1.07.98,1.73-.85.55-1.89,1.55-1.56,2.54.2.72,1.33,1.5,2.37,1.77,3.16.67,6.07-3.54,4.76-6.34-.93-2.13-3.08-3.37-5.43-3.39-1.46-.08-2.57-.14-4.1-.63.01,0-.3-1.96-.26-1.94,1.87,0,3.73-.22,5.59-.23,8.08-.06,15.94-2.12,23.4-5.1,4.3-1.72,8.89-3.72,11.09-7.95,1.87-3.89,1.31-9.25-1.26-12.78-1.4-2.11-3.75-2.45-6.12-3.03-6.66-1.99-17.98-4.62-18.02-13.3.08-4.92,3.39-10.32,8.64-10.84,3.6-.31,7.69,1.68,8.45,5.45.63,3.16-1.16,4.91-1.72,8.05-.11,1.04-1.06,1.8-2.1,1.6-2.02-.39-1.8-3.37.23-3.48h0Z"/></svg>