<?xml version="1.0" encoding="UTF-8"?><svg id="Laag_2" xmlns="http://www.w3.org/2000/svg" viewBox="0 0 1921.77 1347.63"><defs><style>.cls-1{fill:#f6a505;}.cls-2{fill:#053c5e;}.cls-3{fill:#ff9e29;}.cls-4{stroke:#053c5e;stroke-width:3px;}.cls-4,.cls-5,.cls-6,.cls-7{stroke-miterlimit:10;}.cls-4,.cls-7{fill:none;}.cls-8{fill:#fff;}.cls-5{stroke:#63c0c4;}.cls-5,.cls-9,.cls-6{fill:#63c0c4;}.cls-5,.cls-6{stroke-linecap:round;}.cls-10{fill:#bfe3ee;}.cls-11{fill:#f39f85;}.cls-12{fill:#94d7d9;}.cls-13{fill:#00666b;}.cls-14{fill:#212b53;}.cls-15{fill:#fee4ac;}.cls-16{fill:#4dbcbf;}.cls-6{stroke:#212b53;}.cls-17{fill:#f7b58e;}.cls-18{fill:#ffd147;}.cls-7{stroke:#ffda70;}.cls-19{fill:#ffe8ab;}.cls-20{fill:#212d51;}.cls-21{fill:#ffda70;}</style></defs><rect class="cls-18" x="1.77" y="140.71" width="1920" height="1080"/><path class="cls-1" d="m1476.48,708.96c-5.52,8.2-14.97,22.19-27.78,38.55-23.77,30.36-54.98,70.25-103.75,102.33-9.76,6.42-22.31,13.9-37.7,21.24-3.67,2.41-8.11,5.03-13.75,7.85-31.59,15.79-66,20.42-76.54,21.69-31.67,3.8-59.8,2.86-84.69.47-16.73.21-35.35-.5-55.49-2.78-23.96-2.71-42.3-6.32-60.53-11.13-.29,3.3-.49,5.3-.86,8.73,15.62,6.59,34.46,13.37,55.15,18.85,17.16,4.54,33.17,7.59,47.62,9.64-20.74,70.72-41.48,141.45-62.22,212.17h11.24c3.34-11.57,6.68-23.15,10.02-34.72,50.41-32.83,100.82-65.67,151.23-98.5,50.98,33.45,101.95,66.9,152.93,100.35,3.21,10.87,6.43,21.73,9.64,32.6h11.06l-71.02-242.22c18.21-12.64,42.05-31.11,66.99-56.6,4.31-4.4,16.65-17.19,31.37-35.53,32.65-40.67,51.35-76.67,67.28-107.72,12.96-25.28,28.6-58.79,43.56-99.64-12.9,28.62-33.19,68.94-63.78,114.38Zm-395.72,382.39l44.79-155.06,95.24,62.93-140.03,92.13Zm147.3-96.91c-33.32-21.89-66.64-43.77-99.96-65.66l1.04-2.88c23.1,3.66,54.74,5.72,92.15,1.18,42.95-5.21,77.29-17.33,100.17-27.92,2.81,9.59,5.62,19.18,8.43,28.77-33.94,22.17-67.89,44.34-101.83,66.51Zm104.07-59.21l45.85,157.77-143.08-94.13,97.23-63.64Z"/><path class="cls-4" d="m642.77,506.52c-.67-19.48-2.39-40.59-4.96-62.13-7-58.63-20.55-110.91-35.29-153.69"/><path class="cls-4" d="m586.19,428.33c-7.69-28.46-18.36-60.8-33.38-95.46-16.32-37.65-34.67-70.44-51.5-96.97"/><path class="cls-4" d="m556.78,444.98c-4.74-8.58-11.19-18.66-19.91-29.13-9.21-11.05-18.49-19.57-26.43-25.94"/><g><path class="cls-9" d="m673.81,479.03c-7.11-14.77-14.72-36.26-19.56-63.21-7.54-42.03-2.04-74.69-.57-82.77,5.49-30.08,16.3-53.75,25.54-69.99,6.89,2.15,15.38,5.18,24.83,9.5,1.43.65,15.37,7.08,29.41,16.37,30.1,19.93,51.45,46.98,54.97,51.5,28.58,36.72,40.14,73.46,44.98,93.35,11.11,45.63,6.21,81.97,4.91,90.71-5.07,34.03-16.92,60.02-25.7,75.97-14.27-4.25-33.78-11.57-54.8-24.57-9.74-6.02-28.39-17.74-47.24-38.93-18.39-20.66-30.21-41.69-36.76-57.92Z"/><line class="cls-5" x1="814.33" y1="381.99" x2="821.16" y2="375.13"/><line class="cls-5" x1="826.64" y1="399.06" x2="821.22" y2="399.06"/><line class="cls-6" x1="690.78" y1="289.77" x2="812.61" y2="600.45"/><line class="cls-6" x1="733.14" y1="298.66" x2="712.5" y2="345.14"/><line class="cls-6" x1="764.61" y1="323.69" x2="732.71" y2="396.68"/><line class="cls-6" x1="668.23" y1="331.35" x2="715.02" y2="351.58"/><line class="cls-6" x1="677.3" y1="377.46" x2="735.07" y2="402.71"/><line class="cls-6" x1="659.25" y1="412.14" x2="755.09" y2="453.77"/><line class="cls-6" x1="681.84" y1="464.04" x2="775.06" y2="504.68"/><line class="cls-6" x1="743.16" y1="533.02" x2="795.09" y2="555.78"/><line class="cls-6" x1="828.2" y1="469.24" x2="793" y2="550.11"/><line class="cls-6" x1="813.93" y1="405.27" x2="772.88" y2="498.78"/><line class="cls-6" x1="792.67" y1="356.58" x2="752.83" y2="447.99"/></g><path class="cls-1" d="m862.99,609.85c-3.98-13.67-8.86-24.26-12.76-31.61-2.96-5.57-6.67-11.78-12.33-18.28-7.05-8.11-11.83-10.59-14.6-11.76-5.28-2.23-9.64-2.39-10.77-2.41-2.07-.04-7.04-.07-12.33,2.69-3.97,2.08-6.32,4.8-8.79,7.65-1.94,2.25-3.14,4.1-4.96,6.94-4.24,6.62-4.1,8.01-6.09,10.49-4.41,5.48-11.52,6.67-14.03,7.09-13.73,2.29-24.25-7.95-25.8-9.5-9.68-9.68-9.81-22.1-9.78-24.66.71-13.76-.3-30.23-5.53-47.91-.46-1.54-1.12-4.93-2.98-8.93-1.38-2.98-3.28-7.06-7.37-10.77-1.56-1.42-7.44-6.76-16.02-6.8-4.04-.02-7.08,1.14-8.08,1.56-5.05,2.1-7.88,5.74-9.35,7.51-8.14,9.79-18.98,15.41-24.24,18.14-7.7,4-12.27,6.6-18.85,6.09-7.07-.54-15.13-4.44-18.85-11.34-1.06-1.97-1.47-3.64-2.13-7.23-2.7-14.86-2.31-22.56-3.83-30.9-1.75-9.6-2.66-14.39-6.8-19.13-6.74-7.71-16.61-9.02-19.13-9.35-2.68-.36-9.09-1.13-16.16,1.84-7.74,3.26-11.7,9.09-15.73,15.02-2.67,3.94-7.18,11.64-9.78,22.96-5.08,22.09.83,42.41,4.25,51.73h47.34c-15.6,44.11-31.21,88.22-46.81,132.32,5.77,4.88,13.44,11.45,22.86,19.76,0,0,4.11,3.62,14.03,16.3,2.05,2.61,4.52,5.9,3.83,9.64-.63,3.36-3.54,5.6-3.83,5.81-1.97,1.47-3.98,1.8-4.96,1.98,0,0-8.45,1.6-16.72,7.65-2.37,1.74-6.29,4.61-8.22,9.5-3,7.61.68,15.37,2.13,18.43,1.14,2.4,6.24,12.58,26.22,22.25,20.75,10.05,44.13,13.49,47.2,13.89,3.62.47,11.72,1.51,21.4,5.81,3.02,1.34,8.46,2.09,11.62,6.52.53.75,2.1,3,2.27,6.09.19,3.52-1.53,6.22-2.13,7.23-3.72,6.25-4.2,14.41-4.54,19.98-.55,9.24,2.65,20.3,10.06,27.5,4.95,4.81,10.45,6.6,12.9,7.37,15.77,4.95,59.41,16.53,118.2,30.9-7.26-11.55-12.38-21.49-15.87-28.91-3.18-6.77-5.6-12.68-6.38-20.55-.43-4.28-.24-7.88,0-10.35,3.67-4.46,9.02-10.04,16.39-15.26,2.11-1.49,4.23-2.81,4.4-2.91,4.72-2.92,8.94-4.88,12.04-6.16-2.5-9.77-4.79-22.04-5.48-36.28-.63-13.01.21-24.46,1.51-33.83-6.8-2.37-14.53-5.64-22.68-10.2-4.77-2.67-9.05-5.43-12.85-8.13-.86-1.27-2.03-3.32-2.65-6.05-.17-.77-.51-2.54-.38-4.91,1.48-25.74,11.34-47.62,11.34-47.62,2.74-6.07,6.95-14.42,13.23-23.81,1.64-1.55,4.35-3.62,8.13-4.54,1.95-.47,3.79-.54,5.67-.38,5.51.47,17.85,3.4,33.83,8.31,6.57-8.83,13.13-17.67,19.7-26.5Z"/><path class="cls-9" d="m1781.22,503.35s-3.25-14-11.53-29.2c-.64-1.17-1.7-2.89-3.69-4.06-2.33-1.38-4.7-1.53-5.95-1.56-11.01-.28-9.63-.54-18.24.43-4,.45-9.28,1.28-15.4,2.93-3.6-7.16-8.44-15.48-14.93-24.19-6.46-8.67-13-15.67-18.8-21.17.49-.77,11.25-17.83,14.65-27.02.83-2.26,1.43-4.6,1.32-7.37-.02-.63-.18-3.68-1.89-7.28-1.44-3.03-3.3-5.01-4.35-6.05-6.89-6.85-20.77-15.2-21.26-15.5,0,0-17.98-10.82-29.57-14.17-1.24-.36-3.65-.99-6.33-.19-3.1.92-5.29,2.79-6.71,4.25-5.4,5.58-3.44,3.66-10.77,12.47-3.13,3.76-7.03,8.8-11.15,15.12-7.66-2.47-16.97-4.84-27.69-6.33-9.68-1.34-18.43-1.67-25.89-1.51-1.14-7.81-3.32-18.67-7.65-29.29-1.8-4.4-4.04-8.95-8.79-11.53-2.78-1.51-5.38-1.77-6.99-1.89-10.49-.76-21.47,1.84-27.87,3.4,0,0-21.73,5.28-33.83,12.66-1.11.67-2.75,1.85-3.68,3.87-.92,1.98-.9,3.73-.93,4.5-.26,5.95-.57,2.62.37,15.53.82,8.92,2.19,17,3.31,22.77-6.95,3.4-14.9,7.89-23.24,13.8-8.19,5.79-14.95,11.68-20.41,17.01-5.05-3.49-13.75-9.14-23.43-13.61-1.22-.56-5.82-2.63-11.91-3.21-3.89-.37-6.55.04-8.88,1.13-1.5.7-2.6,1.56-3.4,2.27-11.86,10.47-20.03,26.65-20.03,26.65-1.84,3.64-3.67,7.58-5.43,11.84-.87,2.09-1.66,4.14-2.4,6.15,3.9,4.63,6.42,9.03,3.25,11.9.01.02.03.05.04.07l16.39,25.37-.08.02c.86.85,1.74,1.73,2.63,2.66,1.75,1.02,3.5,2.04,5.24,3.06-.21.63-.43,1.26-.64,1.89,5.62,6.3,11.49,13.84,16.76,22.34,1.67,2.68,3.73,6.2,5.94,10.46-.02-.04-.04-.09-.07-.13,0,0,0,0,0-.01,23.87,11.13,46.98,21.98,70.13,32.85-.14-1.97-.23-3.95-.23-5.95,0-46.38,37.6-83.98,83.98-83.98,36.73,0,67.93,23.59,79.34,56.44-11.77,9.15-25.18,21.62-37.61,38.26-19.19,25.7-28.49,51.23-34.16,72.91-2.49.22-5.01.36-7.56.36-13.14,0-25.56-3.03-36.63-8.41-9.76,23.14-19.32,43.06-27.74,59.49-6.42,12.52-19.67,37-18.85,35.53,1.15-.2,2.53-.38,4.12-.45.85-.04,3.33-.14,5.07.21,3.48.71,5.85,3.64,8.01,6.87.41.61.8,1.23,1.19,1.86,1-1.43,1.88-2.82,2.63-4.13,9.45,4.11,22.16,8.37,37.56,10.13,5.98.69,11.57.9,16.66.83.83-1.5,1.57-2.87,2.19-4.09.73-1.43,1.44-2.87,2.17-4.24-1.01-29.92,2.54-54.45,6.15-71.64,5.27-25.08,13-60.02,39.31-95.24,18.6-24.9,39.42-40.51,53.6-49.52,15.48,11.74,36.22,30.1,55.54,56.8,12.67,17.52,21.72,34.48,28.24,49.28-.06.04-.12.08-.18.12,2.28-1.52,4.73-3.1,7.36-4.71-.98-.91-1.89-1.72-2.53-2.27-2.21-1.91-4.17-3.36-5.57-4.35,2.91-8.47,5.76-19.07,7.37-31.46,1.29-9.95,1.51-18.92,1.23-26.55,14.22-3.26,24.73-7.08,29.29-9.83,1.54-.93,4.31-2.65,5.95-5.95.83-1.68,1.1-3.23,1.23-4.35,1.58-14.17-3.31-34.11-3.31-34.11Z"/><g><path class="cls-3" d="m120.91,918.77c.3-20.95,4.13-64.47,34.06-103.51,9.88-12.89,19.97-21.85,26.83-27.31,39.74-31.56,83.18-34.63,99.02-35.53,13.88-.78,44.41-1.45,78.05,12.28,4.68,1.91,62.65,21.54,89.69,89.1,2,5,3.76,10.12,4.7,13.09-27.3,4.31-54.61,8.61-81.91,12.92-3.68-8.68-12.18-25.33-30.01-38.76-11.72-8.83-22.39-12.45-25.09-13.32-31.09-10.08-58.45,2.27-62.36,4.11-27.54,12.94-38.91,36.37-42.24,43.51-5.65,12.11-7.53,23.15-8.22,30.47-27.51,4.31-55.02,8.63-82.54,12.94Z"/><path class="cls-3" d="m111.18,938.97c27.51-4.31,55.02-8.61,82.54-12.92-1.08,13.17-1.14,39.1,13.7,64.68,3.19,5.5,9.25,15.73,20.98,25.23,6.49,5.26,26.91,20.16,55.84,18.99,32.26-1.3,52.52-21.68,58.39-27.78,25.21-26.18,26-58.59,26.08-68.32.15-17.58-3.88-30.8-7.33-39.42,27.29-4.18,54.58-8.37,81.88-12.55,5.23,17.07,9.41,39.48,7.37,65.29-.47,6.01-1.65,16.86-5.1,30.05-8.36,31.96-23.67,53.24-27.5,58.39-5.8,7.82-23.74,30.5-55.56,47.34-8.84,4.68-45.75,23.2-95.81,18.99-15.44-1.3-65.71-6.29-107.15-47.62-47.79-47.67-48.44-108.39-48.33-120.35Z"/></g><g><path class="cls-16" d="m151.56,450.34c26.36-14.33,52.72-28.66,79.09-42.99v160.23h39.92c4.86-.07,10.77-.56,17.36-2.03,0,0,6.42-1.43,12.33-3.76,12.16-4.78,32.31-18.55,43.58-42.8,4.86-10.45,6.41-19.29,7.51-25.8.68-4.01,3.02-19.16,0-38.98-1.36-8.91-2.88-18.9-8.79-30.76-2.54-5.1-8.36-16.47-20.55-26.5-15.7-12.92-32.44-16.17-40.42-17.06,27.92-15.04,55.58-29.89,83.5-44.93,8.38,4.96,19.91,12.97,31.18,25.32,3.33,3.65,14.58,16.38,23.81,36.47,13.03,28.38,13.8,53.51,14.17,71.81.39,18.94.85,41.45-9.35,68.69-13.31,35.54-36.06,55.94-40.82,60.09-25.51,22.23-52.17,29.21-67.46,33.02-16.95,4.23-30.26,4.92-41.1,5.39-27.61,1.17-69.41,2.05-124.58,0,.2-61.81.41-123.62.61-185.43Z"/><path class="cls-16" d="m141.74,439.76v-138.99h120.57c12.83-.35,30.76.57,51.21,6.24,16.62,4.6,31.89,11.74,41.76,17.39-27.78,14.93-55.72,30-83.5,44.93-16.58,0-34.87-.9-51.45-.9,0,9.01.49,19.34.49,28.35-25.5,13.92-53.58,29.07-79.09,42.99"/></g><ellipse class="cls-13" cx="599.79" cy="285.03" rx="19.48" ry="7.49" transform="translate(-64.28 284.08) rotate(-25.34)"/><ellipse class="cls-14" cx="600.2" cy="285.03" rx="5.91" ry="2.18" transform="translate(-64.24 284.25) rotate(-25.34)"/><path class="cls-13" d="m1792.55,670.41l84.71-2.83c-.03-1.51-.06-3.02-.09-4.54-26.99.96-53.98,1.92-80.98,2.88,20.31-24.79,40.63-49.57,60.94-74.36-.33-.69-.66-1.39-.99-2.08-1.1.02-2.2.03-3.31.05-37.87,46.46-75.75,92.91-113.62,139.37-8.93-27.73-17.85-55.47-26.78-83.2-1.12.92-2.24,1.84-3.37,2.76,8.86,28.1,17.72,56.21,26.57,84.31-20.65,25.25-41.29,50.5-61.94,75.76-1.06-1.66-3.11-4.24-6.17-4.68-.98-.14-1.73-.01-2.22.07-9.83,1.71-11.81,2.32-11.81,2.32-6.05,1.48-11.45,3.28-16.16,5.13-3.44-4.54-7.59-9.48-12.54-14.53-5.6-5.7-11.09-10.4-16.09-14.21.22-.55.43-1.1.65-1.66,1.31-3.26,4.82-12.14,6.87-19.76.3-1.12.78-2.98.57-5.39-.37-4.21-2.59-7.2-3.59-8.5-2.17-2.84-5.5-5.48-18.61-10.87,0,0-9.24-4.04-24.69-6.88-1.15-.21-2.99-.31-5.05,0-4.61.71-6.9,6.21-9.57,11.41-2.06,4.02-5.31,9.57-9.26,17.01-5.45-1.02-12.05-1.83-19.56-1.89-8.07-.07-15.13.75-20.88,1.8-1.74-4.76-5.32-13.7-10.54-21.52-2.16-3.23-4.52-6.16-8.01-6.87-1.74-.35-4.21-.25-5.07-.21-1.59.07-2.97.25-4.12.45-12.39,22.11-27.56,46.19-48.43,72.19-14.72,18.34-27.06,31.13-31.37,35.53-9.65,9.86-19.13,18.66-28.18,26.49.17.11.33.24.5.35,1.9,1.26,4.95,2.98,7.7,4.39,3.34,1.71,6.25,2.97,8.41,3.83-.97,6.24-1.71,13.42-1.84,21.4-.15,8.68.44,16.47,1.32,23.15-12.37,3.61-20.81,9.36-23.2,13.75-2.24,4.12-1.85,7.75-1.85,7.75.1,1.81.72,4.68.87,5.24,2.39,8.88,1.4,5.86,5.85,16.44,0,0,6.72,15.99,13.37,22.06,1.03.94,1.96,1.33,2.31,1.46.5.19,2.12.7,5.62,0,1.15-.18.96-.02,2.41-.85,2.09-.36,8.05-1.34,9.59-1.65,3.3-.67,4.7-.64,9.28-2.67,3.9,5.49,8.93,11.72,15.31,18.07,5.83,5.81,11.55,10.47,16.65,14.17-.5,1.33-4.64,12.39-5.88,19.28-.23,1.29-.48,3.08,0,5.24.55,2.45,1.77,4.22,2.62,5.24.64.55,1.3,1.09,1.98,1.63,7.08,5.59,14.58,9.24,21.69,11.62,10.31,3.81,18.32,5.66,21.4,5.67,3.25.01,5.39-1.28,5.39-1.28.75-.45,1.25-.91,1.56-1.2,3.75-3.57,6.24-7.87,6.24-7.87,3.05-4.54,5.11-8.87,6.52-12.47,6.74,1.18,14.95,2.09,24.31,1.98,8.3-.09,15.66-.95,21.83-2.06,4.15,12.17,10.13,19.99,13.46,21.4,2.54,1.07,5.03,1.28,5.03,1.28,1.66.14,3.04-.11,4.11-.21,4.9-.45,9.57-1.58,22.39-7.16,0,0,12.86-5.59,19.77-12.33.54-.53,1.59-1.64,1.91-3.26.23-1.16.09-2.23.05-2.57-.65-5.59-.19-3.49-2.6-13.09-1-3.97-2.15-7.59-3.33-10.84,5.35-3.71,11.65-8.75,18-15.45,5.59-5.9,9.87-11.66,13.11-16.65,4.45,2.39,10.91,5.27,18.21,6.45,3.32.54,5.91.56,8.57-.43,3.27-1.21,5.23-3.32,5.88-4.04.69-.76,1.15-1.42,1.38-1.77,5.39-8.05,9.6-18.43,9.6-18.43s5.46-11.21,6.24-24.19c.09-1.51-.43-2.69-.43-2.69-.4-.93-.7-1.04-1.23-1.75-4.18-4.61-9.12-8.03-9.12-8.03-5.55-3.6-11.05-5.99-14.93-7.46.72-6.19,1.17-13.37.94-21.35-.23-8.32-1.14-15.74-2.27-22.06,6.96-2.02,12.32-4.49,16.02-6.47,3.48-1.86,5.95-3.52,7.98-6.28.79-1.07,2.56-3.54,2.98-7.09.2-1.7-.04-3.02-.09-3.73-.38-5.37-1.76-10.1-4.68-16.72-2.21-5.02-5.59-11.79-10.68-19.51,3.81-4.57,7.62-9.13,11.43-13.7h142.35c1.09-1.31,2.17-2.61,3.26-3.92h-142.06c33.81-41.39,67.62-82.77,101.43-124.16Zm-267.26,290.17c-34.78,0-62.98-28.2-62.98-62.98s28.2-62.98,62.98-62.98,62.98,28.2,62.98,62.98-28.2,62.98-62.98,62.98Z"/><ellipse class="cls-1" cx="491.34" cy="221.38" rx="44.69" ry="18.26" transform="translate(-47.47 231.55) rotate(-25.34)"/><ellipse class="cls-14" cx="491.55" cy="221.24" rx="14.46" ry="5.72" transform="translate(-47.39 231.62) rotate(-25.34)"/><ellipse class="cls-14" cx="502.78" cy="384.27" rx="24.37" ry="10.16" transform="translate(-128.75 424.56) rotate(-41.04)"/><ellipse class="cls-8" cx="502.83" cy="384.27" rx="7.95" ry="3.14" transform="translate(-128.74 424.6) rotate(-41.04)"/><path class="cls-1" d="m1331.25,319.01c-1.34-4.74-1.85-9.17-1.96-12-.03-.82-.07-3.57.57-9.07.08-.65.6-1.96,1.56-3.05.77-.86,1.69-1.19,1.91-1.28,2.79-1.07,10.64-7.38,14.67-11.34,2.59-2.54,8.77-8.76,11.62-18.71.63-2.18,2.04-7.85,1.35-14.1-1.9-17.22-18.08-27.15-22.32-29.55-9.76-5.53-18.91-6.04-26.22-6.45-5.74-.32-12.31-.62-20.13,2.27-2.87,1.06-9.14,3.45-14.46,9.14-10.97,11.73-9.17,28.1-8.79,31.61,1.33,12.08,7.76,24.48,14.74,28.63.92.55,4.12,2.3,7.58,5.67,3.76,3.65,5,5.86,5.31,6.52,1.31,2.75,1.44,5.11,1.56,8.22.11,2.97-.28,8.07-1.84,13.49"/><polygon class="cls-13" points="1306.61 345.69 1320.12 345.69 1322.48 340.04 1303.98 340.04 1306.61 345.69"/><path class="cls-9" d="m1313.8,319.01h-17.46v13.24c.07.77.33,2.58,1.63,4.35,1.16,1.58,2.61,2.34,3.18,2.61,1.35.63,2.9.82,3.61.83h9.03s9.03,0,9.03,0c.71-.01,2.26-.21,3.61-.83.57-.27,2.02-1.02,3.18-2.61,1.3-1.77,1.56-3.59,1.63-4.35v-13.24h-17.46Z"/><path class="cls-7" d="m1309.38,319.01v-55.3c.01-1.41-.18-4.22-2.06-6.73-.73-.98-1.73-2.32-3.47-2.62-1.82-.32-3.28.69-3.61.92-.38.26-2.24,1.52-2.27,3.4-.01.95.45,1.87,1.77,3.19,2.56,2.56,5.46,3.74,7.02,4.32,3.79,1.42,7.62,2.85,12.83,2.55,2.26-.13,4.6-.3,7.02-1.84.76-.48,2.84-1.86,3.97-4.54.43-1.02,1.14-2.71.57-4.75-.7-2.47-2.78-3.65-3.12-3.83-2.91-1.57-6.61-.56-8.79,1.49-1.39,1.31-1.96,2.85-2.2,3.69v60.05"/><path class="cls-20" d="m1323.23,585.95c-.39-.19-.74-.36-1.13-.54.38.18.75.36,1.13.54Z"/><path class="cls-15" d="m1132.28,901.09c-14.84-1.43-28.53-3.37-41.12-5.15-33.12-4.66-58.35-10.72-74.4-15.21,0,0,0,0,0,0-.25,3.41-.32,4.25-.49,6.44,18.23,4.81,36.58,8.43,60.53,11.13,20.13,2.28,38.76,2.99,55.49,2.78Z"/><g><g><path class="cls-1" d="m1685.4,959.65s-4.21,10.38-9.6,18.43c-.23.35-.69,1.01-1.38,1.77-.65.72-2.62,2.83-5.88,4.04-2.66.99-5.26.96-8.57.43-7.3-1.18-13.77-4.06-18.21-6.45-3.24,5-7.52,10.76-13.11,16.65-6.35,6.7-12.65,11.74-18,15.45,1.18,3.25,2.33,6.87,3.33,10.84,1.67,6.64,1.97,7.69,2.21,9.55,18.83-.27,40.72-1.94,64.79-6.38,35.01-6.46,64.1-16.82,86.36-26.65-26.03-16.06-52.06-32.13-78.09-48.19-1.77,6.27-3.83,10.51-3.83,10.51Z"/><path class="cls-1" d="m1685.19,926.29c1.5,1.29,3.2,2.87,4.79,4.63.53.71.83.82,1.23,1.75,0,0,.52,1.19.43,2.69-.18,3.03-.62,5.97-1.19,8.69l82.54,50.36c17.4-9.13,50.13-29.38,75.97-68.03,18.01-26.95,25.98-52.83,29.76-70.02-64.51,23.31-129.02,46.62-193.53,69.93Z"/></g><path class="cls-1" d="m1789.71,816.67c12.68.7,31.68,3.31,52.72,12.47,15.5,6.75,27.36,14.99,35.72,21.83-42.24,15.31-84.47,30.61-126.71,45.92,12.76-26.74,25.51-53.48,38.27-80.22Z"/><path class="cls-1" d="m1720.64,818.75c-13.3,1.87-25.45,4.46-36.37,7.34.98,1.96,1.83,3.79,2.55,5.41,2.92,6.62,4.3,11.35,4.68,16.72.05.71.29,2.03.09,3.73-.41,3.55-2.19,6.02-2.98,7.09-2.03,2.76-4.5,4.42-7.98,6.28-3.7,1.98-9.05,4.46-16.02,6.47,1.13,6.33,2.04,13.75,2.27,22.06.22,7.98-.22,15.17-.94,21.35,3.88,1.47,9.38,3.86,14.93,7.46,0,0,.07.05.19.13,21.51-7.79,43.02-15.58,64.54-23.37,12.98-27.72,25.95-55.43,38.93-83.15-17.88-1.12-39.57-.97-63.87,2.46Z"/></g><path class="cls-12" d="m1358,469.19l3.02-2.59c-1.01.86-2.01,1.72-3.02,2.58,0,0,0,0,0,0Z"/><g><g><g><path class="cls-12" d="m1408.71,535.25c.31.62.62,1.26.93,1.91-.31-.65-.62-1.29-.93-1.91Z"/><path class="cls-12" d="m1407.74,533.32c.2.39.4.79.6,1.2-.2-.4-.4-.8-.6-1.2Z"/></g><path class="cls-19" d="m1421.97,594.9c1.2,7.09,2.36,15.82,3.02,25.89-.66-10.07-1.82-18.8-3.02-25.89Z"/><path class="cls-19" d="m1416.97,572.06c-.28-1.03-.56-2.04-.83-2.98.27.94.55,1.95.83,2.98Z"/></g><g><path class="cls-12" d="m1467.61,721.93c-.54.77-1.09,1.55-1.65,2.35.57-.8,1.12-1.58,1.65-2.35Z"/><path class="cls-12" d="m1463.95,727.1c.63-.89,1.25-1.75,1.85-2.6-.6.85-1.22,1.72-1.85,2.6Z"/><path class="cls-12" d="m1469.32,719.46c-.49.71-.99,1.43-1.51,2.17.52-.74,1.02-1.46,1.51-2.17Z"/><path class="cls-12" d="m1473.78,712.96c-.36.53-.72,1.06-1.1,1.62.38-.56.74-1.09,1.1-1.62Z"/><path class="cls-12" d="m1470.92,717.15c-.45.65-.91,1.32-1.39,2.01.48-.69.94-1.36,1.39-2.01Z"/><path class="cls-12" d="m1476.3,709.23c-.31.47-.63.94-.97,1.44.34-.5.66-.98.97-1.44Z"/><path class="cls-12" d="m1475.14,710.95c-.35.51-.7,1.04-1.07,1.58.37-.55.72-1.07,1.07-1.58Z"/><path class="cls-12" d="m1472.4,714.99c-.4.59-.81,1.19-1.24,1.81.42-.62.84-1.22,1.24-1.81Z"/></g></g><g><path class="cls-14" d="m1609.37,780.97c-.22.55-.43,1.1-.65,1.66,4.99,3.81,10.49,8.5,16.09,14.21,4.95,5.05,9.1,9.98,12.54,14.53,4.71-1.85,10.11-3.64,16.16-5.13,0,0,1.98-.6,11.81-2.32.49-.08,1.24-.21,2.22-.07,3.05.44,5.1,3.02,6.17,4.68,20.65-25.25,41.29-50.5,61.94-75.76-8.71-27.64-17.43-55.29-26.14-82.93-13.46,11.78-32.13,30.09-53.59,56.85-12.01,14.98-26.09,34.09-40.52,57.46-2.06,6.84-4.88,13.97-6.03,16.82Z"/><path class="cls-14" d="m1857.36,588.77c-21.52.91-53.35,5.14-87.78,21.17-18.26,8.5-30.91,17.44-39.87,23.81-2.9,2.06-8.75,6.3-16.87,13.21,8.79,27.31,17.58,54.63,26.37,81.94,37.87-46.46,75.75-92.91,113.62-139.37,1.1-.02,2.2-.03,3.31-.05.33.69.66,1.39.99,2.08-20.31,24.79-40.63,49.57-60.94,74.36,26.99-.96,53.98-1.92,80.98-2.88.03,1.51.06,3.02.09,4.54l-84.71,2.83c-33.81,41.39-67.62,82.77-101.43,124.16h142.06c-1.09,1.31-2.17,2.61-3.26,3.92h-142.35c-3.81,4.57-7.62,9.13-11.43,13.7,5.08,7.72,8.47,14.49,10.68,19.51.56,1.27,1.05,2.46,1.5,3.61.02,0,.05,0,.07-.01-.47-1.21-.98-2.46-1.57-3.8-.71-1.62-1.57-3.45-2.55-5.41,10.92-2.88,23.07-5.47,36.37-7.34,24.31-3.42,45.99-3.58,63.87-2.46,5.57.38,0,0,5.2.38,6.1.34,13.67,1.13,22.22,2.86,13.56-13.22,32.13-34.64,46.38-65.23,4.87-10.46,14.37-31.25,17.86-59.24,5.92-47.47-9.07-86.27-18.8-106.3Z"/></g><path class="cls-8" d="m1397.8,516.52c1.61-7.05,4.5-16.52,8.52-25.69,4.32-9.85,8.8-18.31,13.18-24.53-.85-.19-1.7-.38-2.55-.57-4.63,7.2-9.54,16.04-13.89,26.5-3.09,7.43-5.52,15.15-7.23,21.47"/><path class="cls-8" d="m1631.5,823.41c.68-.06,1.36-.12,2.04-.18,7.79,12,12.59,22.95,15.57,31.15,2.15,5.89,5.07,14.04,6.71,25.13,2.19,14.85.83,26.4,0,32.98-3.09,24.6-12.1,42.15-14.46,46.58-12.07,22.68-27.85,36.1-35.06,41.67-6.81,5.26-24.16,17.58-49.98,23.62-11.45,2.68-39.23,7.55-71.43-3.21-16.13-5.39-28.13-12.96-35.72-18.52.49-.35.98-.71,1.46-1.06,3.67,2.69,8.46,5.88,14.31,9,1.61.86,7.16,3.77,15.26,6.8,5.11,1.92,14.23,5.27,26.46,7.18,3.72.58,16.94,2.46,34.16.47,14.97-1.73,26.32-5.61,32.13-7.84,14.25-5.47,24.09-12.13,27.78-14.74,3.44-2.43,14.21-10.32,25.13-23.72,12.54-15.38,18.5-29.7,20.41-34.58,2.35-5.99,6.94-19.1,8.31-36.57,1.38-17.55-1.13-31.5-2.83-38.93-4.73-20.58-13.65-35.85-20.26-45.24Z"/><polygon class="cls-10" points="1377.98 933.08 1380.67 931.67 1399.48 966.82 1441.05 966.82 1441.05 970.03 1397.4 970.03 1377.98 933.08"/><path class="cls-8" d="m1414.59,834.3c3.43-6.06,8.51-13.91,15.78-22.16,5.19-5.89,9.83-10.09,12.38-12.28,6.93-5.98,18.55-14.62,35.62-21.54-.35-.6-.69-1.2-1.04-1.8-7.48,2.81-18.1,7.7-29.2,16.25-5.55,4.28-9.35,8.04-11.72,10.39-6.41,6.38-15.01,16.17-23.15,30.05.44.36.88.72,1.32,1.09Z"/><path class="cls-8" d="m1525.29,806.12c-49.59,0-89.79,40.2-89.79,89.79s40.2,89.79,89.79,89.79,89.79-40.2,89.79-89.79-40.2-89.79-89.79-89.79Zm0,177.73c-48.57,0-87.94-39.37-87.94-87.94s39.37-87.94,87.94-87.94,87.94,39.37,87.94,87.94-39.37,87.94-87.94,87.94Z"/><path class="cls-8" d="m1619.28,398c.61-.71,1.23-1.42,1.84-2.13,25.35,9.4,40.63,20.18,48.97,27.07,3.01,2.49,6.02,5.22,6.52,5.67,6.06,5.5,17.24,15.78,28.06,31.46,3.52,5.11,11.85,17.81,18.71,36,2.39,6.33,8.43,23.5,10.49,46.77,2.09,23.59-1.34,46.35-4.8,61.03-.57-.94-1.27-2.3-1.84-3.24,1.63-6.5,4.08-17.62,4.8-28.31.14-2.12.5-8.25.14-17.15-.34-8.33-1.03-23.28-6.09-41.95-5.51-20.34-13.41-34.77-16.3-39.83-3.7-6.48-13.2-22.06-29.91-37.98-21.85-20.83-44.95-31.71-60.59-37.42Z"/><path class="cls-14" d="m1309.16,407.53c-9.25,4.66-14.97,7.52-21.83,10.06-5.42,2.01-8.08,3-11.3,3.54,0,0-1.52.28-2.85.44-3.83.47-14.2,1.73-22.28-4.83-5.17-4.19-8.81-11.1-8.65-18.57.18-8.32,5.04-13.84,7.09-16.16,5.55-6.3,12.28-8.34,14.31-8.93,2.6-.75,4.87-1.03,6.52-1.13h34.94c1.66.09,4.1.01,6.8-.92,2.49-.86,3.56-1.89,5.67-3.05,4.27-2.35,8.32-2.79,10.06-2.98,2.91-.31,8.66-.94,13.46,2.27,2.49,1.66,4.24,4.03,6.17,8.5,1.64,3.8,4.54,11.77,4.82,32.1.11,7.87.14,11.93-.92,17.57-1.24,6.61-3.28,11.89-4.96,15.52-1.94-2.36-3.97-4.75-5.81-7.09,1.04-.53,2.6-1.41,4.5-3.09,1-.91,2.6-2.55,3.36-4.93.49-1.64.54-3.93-.48-6.15-1.26-2.45-3.16-2.78-3.58-2.9-3.13-.93-6.09.89-7.46,1.8-2.59,1.72-3.46,3.83-4.08,5.19-3.5-5.88-7.33-11.46-10.83-17.34-.38-.45-1.28-1.39-2.76-1.91-1.84-.64-3.42-.24-3.97-.07-1.35.7-3.42,1.77-5.95,3.05Z"/><path class="cls-11" d="m1346.23,441.07c.57,2.18.94,5.46.72,9.2-.05.81-.23,3.34-1.2,6.66-.45,1.55-2.33,7.56-7.69,13.93-3.92,4.66-8.01,7.48-11.53,9.58,1.17,4.14,2.53,8.47,3.7,12.61,10.39-8.77,20.55-17.49,30.8-26.46,6.61-5.78-10.32-17.82-14.79-25.52Z"/><path class="cls-17" d="m1345.97,440.66c-1.86-2.26-3.8-4.54-5.55-6.77,1.04-.53,2.6-1.41,4.5-3.09,1-.91,2.6-2.55,3.36-4.93.49-1.64.54-3.93-.48-6.15-1.26-2.45-3.16-2.78-3.58-2.9-3.13-.93-6.09.89-7.46,1.8-2.59,1.72-3.46,3.83-4.08,5.19-3.5-5.88-7.33-11.46-10.83-17.34-.38-.45-1.28-1.39-2.76-1.91-1.84-.64-3.42-.24-3.97-.07-1.35.7-3.42,1.77-5.95,3.05-9.25,4.66-14.97,7.52-21.83,10.06-5.42,2.01-8.08,3-11.3,3.54,0,0-1.52.28-2.85.44,1.59,14.38,4.82,25.5,7.62,33.42,5.46,15.46,11.04,22.94,12.76,25.16,3.26,4.21,6.42,7.34,8.72,9.43,9.97-1.66,17.33-5.11,21.83-7.65,3.97-2.25,9.1-5.21,13.96-10.98,5.36-6.36,7.24-12.38,7.69-13.93.97-3.33,1.16-5.85,1.2-6.66.23-3.82-.16-7.17-.75-9.35-.09-.11-.17-.23-.25-.34Z"/><polygon class="cls-8" points="1330.22 493.05 1332.49 504.03 1377.27 491.93 1361.02 466.6 1330.22 493.05"/><path class="cls-14" d="m761.73,1100.28c-1.55,1.12-6.22,4.19-12.94,4.2-6.68.01-11.34-3-12.9-4.11-7.9,5.81-18.89,12.61-32.98,17.91-12.59,4.73-22.11,6.62-24.38,6.66-.19,0-1.76.02-3.83.38-1.77.3-2.65.46-3.59.94-2.38,1.24-3.38,3.66-3.92,4.96-.4.98-.97,2.71-.94,5.01h45.17c12.13-2.05,24.25-4.09,36.38-6.14v6.33h20.32c.77-4.11,1.36-8.98,1.42-14.46.03-3.22.16-6.28-.5-9.99,0,0-.54-3.06-2.27-6.87-.87-1.93-1.71-3.29-3.22-4.15-.7-.4-1.35-.58-1.81-.67Z"/><path class="cls-17" d="m742.22,1083.28c0,.44-.05,1.06-.15,1.65-.2,1.12-.54,1.93-.66,2.22-1.87,4.6-3.66,8.63-5.53,13.23,1.56,1.11,6.22,4.12,12.9,4.11,6.73-.01,11.4-3.09,12.94-4.2,3.36-5.04,6.6-9.6,9.96-14.63v-2.37h-29.46Z"/><path class="cls-14" d="m951.25,1100.28c-1.55,1.12-6.22,4.19-12.94,4.2-6.68.01-11.34-3-12.9-4.11-7.9,5.81-18.89,12.61-32.98,17.91-12.59,4.73-22.11,6.62-24.38,6.66-.19,0-1.76.02-3.83.38-1.77.3-2.65.46-3.59.94-2.38,1.24-3.38,3.66-3.92,4.96-.4.98-.97,2.71-.94,5.01h45.17c12.13-2.05,24.25-4.09,36.38-6.14v6.33h20.32c.77-4.11,1.36-8.98,1.42-14.46.03-3.22.16-6.28-.5-9.99,0,0-.54-3.06-2.27-6.87-.87-1.93-1.71-3.29-3.22-4.15-.7-.4-1.35-.58-1.81-.67Z"/><path class="cls-17" d="m938.3,1104.49c6.73-.01,11.4-3.09,12.94-4.2,0,0,3.44-12.02,4.52-16.96h-27.75l-2.04,17.43.04.04c1.97,1.3,6.32,3.71,12.29,3.7Z"/><g><path class="cls-8" d="m1674.15,534.96c1.38,1.24,2.77,2.52,4.17,3.84-8.48-57.32-57.88-101.3-117.55-101.3-63.04,0-114.6,49.08-118.59,111.11,1.13.53,2.26,1.06,3.39,1.59,3.19-60.86,53.55-109.22,115.2-109.22,56.41,0,103.35,40.48,113.38,93.98Z"/><path class="cls-8" d="m1561.67,675.18c.21-1.19.42-2.35.63-3.49-.51,0-1.02.02-1.53.02-17.14,0-33.4-3.75-48.03-10.46-.49,1.06-.98,2.11-1.46,3.16,15.07,6.91,31.83,10.78,49.49,10.78.3,0,.6,0,.9-.01Z"/></g><g><polygon class="cls-20" points="284.66 519.04 371.26 519.04 425.4 692.94 330.29 646.67 284.66 519.04"/><path class="cls-20" d="m320.18,656.47l94.94,46.39,15.66,63.5h1.28l11.41-49.68,66.47,32.1-37.2,105.02h-24.17c-4.87-12.34-13.99-30.95-30.92-49.23-21.64-23.37-45.35-34.66-58.77-39.87l-38.69-108.24Z"/><polygon class="cls-20" points="597.46 519.04 512.56 519.04 453.6 706.55 519.72 738.79 597.46 519.04"/></g><path class="cls-14" d="m1259.54,750.15c-11.43-6.74-22.47-9.44-34.02-10.93v5.07h-158.17l-4.8-9.82c-.19-.03-.39-.07-.58-.1-33.07-1.92-57.97-1.85-68.6-.94-4.45.38-10.58,1.26-16.63,5.1-3.87,2.46-6.28,5.17-7.46,6.52-4.98,5.67-6.84,11.28-7.28,12.66-.52,1.65-.86,3.19-1.09,4.59,99.95,5.47,202.95,10.96,302.6,16.43,9.76,6.2,19.56,12.46,29.35,18.75.59-.56,1.08-1.2,1.46-1.97,5.28-10.81-15.4-33.94-34.77-45.35Z"/><path class="cls-13" d="m1332.49,504.03c-33.32,56.87-66.65,113.73-99.97,170.6,36.58,7.17,73.17,14.33,109.75,21.5-4.02-11.83-7.82-24.85-11.06-38.98-6.1-26.64-9.07-51.01-9.45-71.89.66.3,1.14.54,1.79.86-.57-12.11.54-21.68,2.06-27.99,2.2-9.17,4.2-17.51,11.27-25.51,2.4-2.72,9.17-10.19,20.79-13.04,14.15-3.48,25.67,2.35,29.48,4.35,12.49,6.55,18.12,17.41,20.79,22.49,1.55,2.94,2.45,5.43,4.25,10.39,1.55,4.27,5.93,16.78,9.26,35.15,1.4,7.72,2.85,17.74,3.59,29.57.51-7.73.66-17.47-.38-28.63-1.48-15.92-4.71-27.65-5.57-30.71-5.35-18.87-13.11-32.76-17.76-40.25-7.62-12.28-16.5-22.59-24.05-30-15.1,3.83-29.66,7.98-44.79,12.09Z"/><path class="cls-10" d="m1425.91,637.34c-.31-5.24-.63-10.48-.94-15.72,0-.26.02-.54.02-.81-.76-11.52-2.17-21.3-3.54-28.86-3.33-18.37-7.71-30.88-9.26-35.15-1.8-4.97-2.71-7.45-4.25-10.39-2.67-5.08-8.3-15.94-20.79-22.49-3.81-2-15.33-7.82-29.48-4.35-11.61,2.85-18.39,10.32-20.79,13.04-7.06,8.01-9.07,16.34-11.27,25.51-1.52,6.32-2.63,15.88-2.06,27.99.66.32,1.33.64,1.99.96.41,10.63,1.52,25.7,4.67,43.65.47,2.67,1.35,7.53,3.12,15.59,2.92,13.32,7.49,31.98,14.67,54.99-57.71-11.48-115.42-22.96-173.13-34.44-2.5,5.91-5.01,11.81-7.51,17.72,18.22,9.9,43.99,23.25,75.83,37.56,10.03,4.51,22.9,10.29,38.27,16.3,23.02,8.99,55.76,20.08,97.37,28.77,4.6.76,12.2,1.27,20.41-1.84,4.9-1.86,8.07-4.26,8.79-4.82,6.25-4.85,8.94-10.75,10.2-13.61,3.5-7.92,3.48-15.17,3.17-19.09.96-7.89,2.02-18.38,2.65-30.8.51-10.09.54-17.74.57-24.28.03-9.39-.13-21.57-.85-35.91l2.15.47Z"/><path class="cls-21" d="m1419.08,562.18c.87,3.06,4.1,14.79,5.57,30.71,1.04,11.16.89,20.9.38,28.63-.02-.24-.04-.47-.05-.71,0,.27-.01.55-.02.81.31,5.24.63,10.48.94,15.72,1.66.38.23.05,1.93.44,1.2,21.4.8,37.94.18,48.79-.42,7.31-.82,10.14-1.23,19.75-.29,6.93-.76,13.88-1.7,27.78-.32,4.76-.81,8.79-3.09,13.77-1.76,3.83-3.7,6.55-6.07,9.38-3.44,4.09-7.03,7.91-12.85,10.54-2.69,1.22-4.65,1.88-8.13,2.59-5.47,1.11-10.86.96-14.08.94-5.21,10.76-11.27,22.18-18.33,34.02-5.6,9.39-11.25,18.07-16.82,26.08-.02,0-.03-.02-.04-.03-6,9.69-17.1,24.48-34.16,36.78-1.29.93-2.71,1.91-4.25,2.92,15.39-7.35,27.94-14.83,37.7-21.24,48.76-32.08,79.98-71.97,103.75-102.33,12.81-16.36,22.26-30.36,27.78-38.55,30.59-45.44,50.88-85.76,63.78-114.38-45.26-21.1-87.81-41.22-133.07-62.33,0,0,0,0,0,.01,3.98,7.65,8.43,17.74,11.89,29.91Z"/><path class="cls-13" d="m1280.51,742.6c-25.67-9.7-48.62-20.29-68.79-30.8-4.26,7.23-8.52,14.46-12.77,21.69h26.57v10.82h-16.06c45.42,29.04,90.83,58.08,136.25,87.12,5.57-8,11.22-16.69,16.82-26.08,7.06-11.84,13.12-23.25,18.33-34.02-29.63-5.89-63.67-14.86-100.35-28.72Z"/><path class="cls-1" d="m929.84,762.52c-1.25.19-2.64.42-4.17.71,0,.06-.01.12-.02.17,2.54-.53,4.77-.86,6.58-1.12,3.09-.45,5.95-.69,8.53-.81,3.65-4.9,5.64-9.37,6.77-12.46,2.18-6,1.93-9.14,1.8-10.3-.56-4.74-2.96-8.03-4.35-9.92-1.36-1.87-3.68-4.96-7.94-6.99-.53-.25-1.04-.46-1.55-.65-3.87,10.41-5.98,21.68-5.98,33.44,0,2.67.11,5.31.33,7.93Z"/><path class="cls-14" d="m1016.76,880.74c-.22,3.12-.46,6.3-.78,9.71-.05.59-.11,1.18-.17,1.78-1.36,13.57-4.16,31.04-12.52,62.02-3.3,12.27-6.3,21.16-9.82,31.94-11.47,35.08-24.3,67.47-37.7,97.13h-30.14c7.64-70.95,15.39-141.88,23.24-212.79.08-.69.15-1.39.23-2.08.07-.67.15-1.33.22-2,.39-3.55.79-7.11,1.19-10.66,12.3,5.81,28.63,12.81,48.26,19.44,2.8.94,9.7,3.16,17.99,5.51Z"/><path class="cls-2" d="m1345.71,831.31c-5.99,9.69-17.11,24.52-34.2,36.85-4.37,3.15-9.99,6.77-18,10.77-31.59,15.79-66,20.42-76.54,21.69-50.55,6.06-92.09.07-125.81-4.68-51.88-7.3-84.43-18.03-92.6-20.79-20.94-7.07-38.1-14.58-50.65-20.6-7.64,16.42-18.43,37.64-33.07,61.42-12.09,19.63-22.32,33.7-28.82,42.61-5.5,7.54-26.88,36.53-59.81,72-13.67,14.73-32.29,33.35-53.57,52.69h-32.03c43.98-91.37,88.39-183.56,132.38-274.93,2.1-5.64,6.04-14.11,13.46-22.54,8.81-10,18.16-15,21.97-16.87,9.56-4.67,17.89-5.93,22.96-6.66,6.22-.9,11.54-.98,15.45-.85,104.27,5.72,212.22,11.47,316.48,17.19,27.4,17.39,55,35.3,82.4,52.69"/><polygon class="cls-1" points="995.25 596.71 1005.27 591.7 1074.25 733.48 1225.52 733.48 1225.52 744.3 1067.35 744.3 995.25 596.71"/><path class="cls-17" d="m1171.24,664.17c-2.38,5.83-4.76,11.65-7.13,17.48l-9.07-4.54c-5.33,3.37-10.11,5.5-13.65,6.85-3.93,1.5-7.03,2.66-11.39,3.02-3.87.33-7.9.66-11.95-1.51-5.69-3.06-7.64-9.06-8.17-10.96-.94,3.02-2.19,6.87-3.78,11.39-1.12,3.17-2.06,5.7-4.54,7.75-.97.8-2.02,2.1-2.98,1.8-.61-.2-1-.96-1.02-.99-.33-.67-.21-1.29-.17-1.46,1.53-9.15,3.06-18.3,4.58-27.45.02-.44.12-1.69,1.04-2.88.74-.96,1.69-1.43,2.36-1.7,2.26-.91,12.57-4.08,26.69-8.13,1.44-.33,3.31-.65,5.53-.76,1.11-.05,4.48-.16,8.46.71,4.39.96,6.94,2.55,11.24,4.82,3.28,1.73,7.97,4.07,13.94,6.57Z"/><g><path class="cls-1" d="m1712.04,577.15c-18.34-25.37-37.97-43.19-53.17-54.98-7.56,70.18-15.62,141.14-23.18,211.32-.09.13-.18.26-.27.39,7.24-10.22,14.15-19.29,20.49-27.19,21.46-26.76,40.13-45.07,53.59-56.85-.15-.46-.29-.92-.44-1.38,1.12-.92,2.24-1.84,3.37-2.76.14.42.27.84.41,1.26,8.13-6.91,13.97-11.15,16.87-13.21,3.06-2.18,6.57-4.66,10.57-7.32-6.52-14.8-15.57-31.76-28.24-49.28Z"/><path class="cls-1" d="m1636.4,685.26c5.91-53.85,12-109.66,17.92-163.51-.11.07-.2.13-.31.21-3.53,2.32-29.89,19.91-51.1,47.91-15.78,20.84-25,42.55-30.87,61.4,21.18,17.77,43.19,36.22,64.37,53.99Z"/><path class="cls-1" d="m1654.34,521.74c.76-.47,1.45-.9,2.16-1.39-.51.32-1.26.81-2.16,1.39Z"/><path class="cls-1" d="m1630.87,740.4c1.65-17.2,3.12-32.46,4.77-49.66-21.41-17.92-43.72-36.48-65.13-54.4-3.18,11.02-5.26,20.89-6.92,28.77-3.61,17.18-7.16,41.71-6.15,71.64,1.93-3.61,4.06-6.65,7.4-7.17,2.06-.32,3.9-.22,5.05,0,15.45,2.84,24.69,6.88,24.69,6.88,13.12,5.39,16.44,8.03,18.61,10.87,1,1.31,3.22,4.29,3.59,8.5.21,2.41-.27,4.27-.57,5.39-.38,1.4-.8,2.84-1.25,4.29.14-.45.28-.9.42-1.35,5.27-8.53,10.5-16.49,15.59-23.9-.04.05-.07.1-.11.15Z"/><path class="cls-1" d="m1570.65,635.9c.44-1.5.92-3.02,1.35-4.51-.47,1.52-.92,3.02-1.35,4.51Z"/></g><g><path class="cls-14" d="m802.97,815.75c-26.56-23.35-53.83-50.58-79.11-75.41-9.76-9.45-19.93-18.93-29.09-29.08-15.38-16.88-28.43-35.72-44.45-51.99,0,0,5.81-4.77,5.81-4.77,17.97,26.13,39.96,49.39,62.44,71.63,22.85,20.98,46.67,44.41,69.22,65.74,6.63,6.19,13.23,12.41,19.99,18.37,0,0-4.82,5.52-4.82,5.52h0Z"/><path class="cls-14" d="m568.63,458.47c16.34,71.39,45.99,139.95,89.6,198.96,0,0-4.74,3.28-4.74,3.28-20.11-30.92-39.41-62.5-54.32-96.32-11.09-25.38-19.95-51.65-26.96-78.42-2.32-8.92-4.35-17.91-6.2-26.94,0,0,2.62-.57,2.62-.57h0Z"/><path class="cls-14" d="m682.46,532.22c-10.2,19.87-17.46,41.22-21.47,63.2-2.04,10.99-3.66,22.03-3.63,33.13,0,11.09,1.46,22.17,3.32,33.18l-5.17.7c-1.71-16.82-2.79-34.03-.38-50.89,2.44-16.77,6.27-33.32,11.82-49.34,3.7-10.66,8.19-21.05,13.34-31.09,0,0,2.17,1.12,2.17,1.12h0Z"/><path class="cls-14" d="m574.49,732.2c39.7-2.21,79.72-.15,119.28,3.37,13.2,1.32,26.39,2.76,39.54,4.54l-1,7.43c-26.15-3.53-52.37-6.8-78.65-9.12-19.01-1.52-40.17-2.25-59.34-3.05-6.6-.27-13.21-.55-19.82-.9,0,0-.01-2.27-.01-2.27h0Z"/><path class="cls-14" d="m811.09,593.6c1.46,16.25-1.12,32.37-3.46,48.36-2.53,15.94-5.68,31.75-9.19,47.48-7.21,31.41-14.8,62.86-26.13,93.08,0,0-4.44-1.51-4.44-1.51,15.95-52.67,32.66-108.89,39.44-163.44.91-7.93,1.58-15.9,1.44-23.81l2.35-.16h0Z"/><path class="cls-14" d="m685.52,829.89c24.5-2.61,49.18-4.65,73.84-2.91,8.26.58,16.52,1.43,24.66,3.09,0,0-1.02,5.72-1.02,5.72-7.94-1.19-15.98-2-24.07-2.56-16.21-1.05-32.49-1.91-48.76-2.01-8.15.1-16.31.34-24.46.89l-.19-2.22h0Z"/><path class="cls-14" d="m555.21,611.26c31.43,9.87,61.83,23.12,89.58,41,4.65,2.92,9.16,6.03,13.5,9.39,4.39,3.27,8.57,6.89,11.29,12.26l-2.73,3.46c-4.17-3.43-8.46-6.74-12.72-10.1-8.52-6.66-17.22-13.21-26.21-19.2-13.64-8.77-28.33-15.82-43.31-22.02-10.04-4.1-20.21-7.99-30.5-11.4l1.1-3.4h0Z"/></g><path class="cls-8" d="m1654.32,521.76c.77-.48,1.46-.91,2.19-1.41,1,.76,1.45,1.1,2.37,1.82-7.56,70.18-15.62,141.14-23.18,211.33-1.71,2.44-3.12,4.52-4.82,6.91,1.65-17.2,3.12-32.46,4.77-49.66-21.41-17.92-43.72-36.49-65.13-54.4.48-1.68,1.04-3.39,1.52-5.07,21.18,17.77,43.19,36.22,64.37,53.99,5.91-53.85,12-109.66,17.92-163.51Z"/><g><g><path class="cls-9" d="m1107.41,1000.88c1.54.38,4.13.76,7.09.66,4.08-.13,7.1-1.1,9.17-1.8,12.63-4.24,22.84-9.26,24.28-9.97,13.43-6.58,12.09-7.65,23.81-14.79,0,0,2.75-1.48,5.94-4.24l-52.15-34.45-18.62,64.45c.16.04.31.09.47.13Z"/><path class="cls-9" d="m1129.14,925.9l-1.04,2.88c18.31,12.03,36.62,24.05,54.92,36.08.38-.65.59-1.16.59-1.16.36-.89.49-1.69.61-2.41.44-2.53.19-4.57,0-5.81-.93-6.07-2.65-10.68-2.65-10.68-.74-2.52-1.68-5.48-2.9-8.78,0,0-1.13-3.06-2.54-6.35-18.07-.14-33.91-1.69-47.01-3.77Z"/><path class="cls-9" d="m1093.29,989.02c1.56,2.09,3,3.87,4.37,5.37,6.84-23.33,13.68-46.67,20.53-70-14.45-2.04-30.46-5.09-47.62-9.64-20.69-5.48-39.53-12.25-55.15-18.85,0-.03,0-.05,0-.08-1.5,13.08-4.49,30.1-12.12,58.42-3.31,12.27-6.3,21.16-9.83,31.94-2.7,8.27-5.49,16.39-8.33,24.36,3.69.83,5.77-.55,5.77-.55.76-.51,1.24-1.15,1.51-1.61,3.53-4.51,7.4-10.13,11.06-16.91,3.65-6.77,6.21-13.1,8.03-18.52,10.48.71,23.01.78,37.04-.76,11.86-1.3,22.38-3.47,31.32-5.86,4.59,9.98,9.55,17.5,13.42,22.68Z"/></g><path class="cls-9" d="m948.87,870.53c.54-4.91,1.09-9.83,1.64-14.74l-.1-.05c-.85-.4-1.68-.8-2.49-1.18-7.64,16.42-18.43,37.64-33.07,61.42-4.44,7.2-8.62,13.65-12.46,19.37,3.62,2.16,7.23,4.32,10.85,6.47-4.67,15.21-7.14,27.17-7.23,32.88-.05,3.4.72,5.54,1.13,6.52.81,1.91,2.15,3.9,5.24,6.52,4.56,3.86,8.97,5.73,10.49,6.38,3.34,1.42,7.21,3.12,11.86,5.22,4.68-42.94,9.38-85.88,14.13-128.81Z"/><g><path class="cls-9" d="m1348,701.3c-7.18-23.01-11.75-41.67-14.67-54.99-1.77-8.06-2.65-12.92-3.12-15.59-3.15-17.95-4.26-33.02-4.67-43.65-.66-.32-1.33-.64-1.99-.96,0,0,0,0,0,0,0,0,0,0,0,0-.65-.32-1.12-.56-1.79-.86.37,20.87,3.35,45.24,9.45,71.89,3.23,14.13,7.03,27.14,11.06,38.98-27.33-5.35-53.48-10.47-80.81-15.83-.59,1.95-.5,1.65-1.1,3.58,30.48,6.06,57.17,11.37,87.65,17.44Z"/><path class="cls-9" d="m1427.81,637.78c-1.7-.38-.26-.06-1.93-.44l-2.15-.47c.72,14.33.88,26.52.85,35.91-.02,6.55-.06,14.19-.57,24.28-.63,12.42-1.68,22.91-2.65,30.8.32,3.92.34,11.17-3.17,19.09-1.26,2.86-3.95,8.76-10.2,13.61-.72.56-3.88,2.96-8.79,4.82-8.21,3.11-15.81,2.6-20.41,1.84-41.61-8.69-74.35-19.78-97.37-28.77-15.37-6.01-28.24-11.79-38.27-16.3-1.54-.69-3.05-1.38-4.56-2.07-.85-.39-1.71-.78-2.55-1.16-28.57-13.08-51.87-25.17-68.71-34.33,2.5-5.91,5.01-11.81,7.51-17.72,28.49,5.67,56.99,11.34,85.48,17.01.38-1.2.75-2.39,1.1-3.58l-28.94-5.67c9.96-17,19.93-34,29.89-51.01-5.46-8.68-14.75-19.75-18.08-22.66-.74-.65-2.41-2.08-4.96-2.83-3.08-.92-5.77-.35-7.37,0-13.39,2.97-15.31,3.68-15.31,3.69-10.84,4.07-20.15,8.04-26.36,10.77-5.55-6.78-12.61-14.42-21.4-22.11-8.97-7.85-17.65-13.92-25.23-18.57.82-1.93,12.04-28.91,9.5-43.8-.34-2.02-1.03-6.04-3.97-9.92-3.27-4.32-7.54-6.11-10.2-7.23-25.45-10.69-21.81-9.52-25.94-10.91,0,0-27.71-9.41-40.11-6.66-2.23.49-3.97,1.56-3.97,1.56-2.32,1.42-3.57,3.29-4.11,4.11-7.72,11.76-10.35,17.86-10.35,17.86-4.2,9.76-7.09,16.56-9.07,21.26-9.37-.92-20.47-1.36-32.88-.57-11.77.75-22.21,2.44-31.04,4.39-2.58-6.03-8.03-17.86-15.87-28.35,0,0-5.41-7.23-12.19-10.2-1.05-.46-3.61-1.58-6.94-1.42-1.57.08-2.75.41-3.26.57-20.86,6.18-32.74,12.33-32.74,12.33s-6.92,3.58-31.61,22.11c-.88.66-2.86,2.18-3.83,4.82-.88,2.41-.51,4.61-.28,5.81,1.84,9.75,4.25,14.6,4.25,14.6,2.52,5.07,5.71,12.51,9.28,23.81-4.36,3.16-9.02,6.87-13.82,11.2-4.46,4.02-8.38,7.99-11.8,11.75.08.28.17.55.25.83-6.57,8.83-13.13,17.67-19.7,26.5-15.98-4.92-28.32-7.85-33.83-8.31-1.88-.16-3.72-.09-5.67.38-3.77.91-6.48,2.99-8.13,4.54-6.28,9.39-10.49,17.74-13.23,23.81,0,0-9.86,21.88-11.34,47.62-.14,2.37.2,4.14.38,4.91.61,2.73,1.79,4.78,2.65,6.05,3.8,2.7,8.08,5.46,12.85,8.13,8.15,4.56,15.88,7.83,22.68,10.2-1.3,9.37-2.15,20.82-1.51,33.83.69,14.25,2.98,26.52,5.48,36.28-3.1,1.28-7.32,3.24-12.04,6.16-.17.11-2.29,1.42-4.4,2.91-7.38,5.22-12.73,10.8-16.39,15.26-.24,2.47-.43,6.06,0,10.35.78,7.87,3.19,13.78,6.38,20.55,3.49,7.42,8.61,17.37,15.87,28.91-.2-.05-.4-.1-.6-.15,6.46,8.86,11.71,15.05,13.99,16.9.58.47,1.89,1.54,3.83,1.84,1.53.24,2.74-.1,3.4-.28.71-.19,1.54-.4,2.48-.61,15.64-32.48,31.27-64.93,46.84-97.28,2.1-5.64,6.04-14.11,13.46-22.54,8.81-10,18.16-15,21.97-16.87,8.67-4.24,16.32-5.66,21.45-6.44-.21-2.61-.33-5.26-.33-7.93,0-53.01,42.91-95.99,95.89-96.1l-30.18-61.78,10.02-5.01,32.89,67.6c23.63,3.07,44.56,14.74,59.56,31.75,1.42-8.5,2.84-17,4.26-25.5.02-.44.12-1.69,1.04-2.88.74-.96,1.69-1.43,2.36-1.7,2.26-.91,12.57-4.08,26.69-8.13,1.44-.33,3.31-.65,5.53-.76,1.11-.05,4.48-.16,8.46.71,4.39.96,6.94,2.55,11.24,4.82,3.28,1.73,7.97,4.07,13.94,6.57-2.38,5.83-4.76,11.65-7.13,17.48-3.02-1.51-6.05-3.02-9.07-4.54-5.33,3.37-10.11,5.5-13.65,6.85-3.93,1.5-7.03,2.66-11.39,3.02-3.87.33-7.9.66-11.95-1.51-5.69-3.06-7.64-9.06-8.17-10.96-.94,3.02-2.19,6.87-3.78,11.39-1.12,3.17-2.06,5.7-4.54,7.75-.3.25-.62.55-.93.83,9,11.21,15.54,24.48,18.79,38.99h79.54c4.26-7.23,8.52-14.46,12.77-21.69,7.04,3.67,14.44,7.35,22.16,11,2.06.97,4.15,1.94,6.25,2.91.29.13.57.27.86.4,0,0,0,0,0,0,12.36,5.66,25.53,11.21,39.52,16.5,36.67,13.86,70.72,22.83,100.35,28.72,3.22.01,8.61.17,14.08-.94,3.48-.71,5.44-1.38,8.13-2.59,5.82-2.63,9.41-6.45,12.85-10.54,2.38-2.83,4.31-5.54,6.07-9.38,2.28-4.98,2.77-9.01,3.09-13.77.94-13.9,1.41-20.85,1.7-27.78.41-9.61.81-12.44,1.23-19.75.63-10.85,1.02-27.39-.18-48.79Z"/></g></g><path class="cls-8" d="m959.96,568.64l-.28-3.02c7.14-2.49,16.31-5.23,27.17-7.37,7.25-1.43,22.39-4,41.57-3.78,24.97.29,46.39,5.19,62.74,10.58v2.55c-12.37-4.12-30.81-8.97-53.86-10.3-7.55-.43-13.38-.36-16.44-.28-13.93.36-35.17,2.5-60.9,11.62Z"/><path class="cls-8" d="m833.44,800.94c-1.04-.28-2.08-.57-3.12-.85,1.88,8.89,4.78,19.32,9.35,30.61,3.76,9.29,7.39,16.44,11.38,23.2.56-1.11.85-1.72,1.34-2.79-4.17-6.78-7.67-14.31-11.59-24.52-3.65-9.5-5.92-18.24-7.37-25.65Z"/><path class="cls-8" d="m941.75,935.3c-4.54-1.85-9.5-4.18-14.69-7.15-5.38-3.09-10.03-6.3-13.97-9.34-.54.87-1.08,1.72-1.61,2.56,3.64,2.63,7.69,5.3,12.18,7.91,6.29,3.66,12.29,6.54,17.78,8.83.1-.94.21-1.88.31-2.82Z"/><g><path class="cls-8" d="m1129.14,925.9l-1.04,2.88c.18.12.36.24.54.36,1.5-.91,2.93-1.8,4.28-2.67-1.28-.19-2.55-.37-3.79-.57Z"/><path class="cls-8" d="m1094.66,945.51c7.3-2.69,13.92-5.62,19.85-8.58.35-1.2.71-2.41,1.06-3.61-15.51,7.8-36.16,15.71-61.23,19.35-20.45,2.96-36.99,2.44-50.83.79-.28,1-.41,1.54-.69,2.56,18.69,2.04,43.61,2.7,71.58-4.27,10.08-2.51,18.64-5.64,20.27-6.24Z"/></g><path class="cls-8" d="m1005.96,618.61l-.81-1.66c-66.03,10.68-116.45,67.94-116.45,136.98,0,9.2.9,18.19,2.61,26.89.52-.48,1.03-.95,1.54-1.4-1.56-8.26-2.38-16.78-2.38-25.5,0-68.34,50.05-124.99,115.49-135.32Z"/><g><path class="cls-8" d="m1124.73,654.96c-25.04-24.61-59.38-39.8-97.26-39.8-3.56,0-7.1.14-10.59.4l.84,1.73c3.22-.23,6.47-.35,9.75-.35,37.05,0,70.65,14.71,95.31,38.6.64-.19,1.29-.38,1.96-.57Z"/><path class="cls-8" d="m1144.5,682.69c9.29,15.23,15.69,32.41,18.44,50.79h1.79c-2.75-18.64-9.22-36.07-18.61-51.52-.56.26-1.1.5-1.63.73Z"/></g><g><rect class="cls-10" x="1140.22" y="739.02" width="15.92" height="13.79" rx="1.18" ry="1.18"/><path class="cls-10" d="m1144.98,753.09c3.61,38.84,11.34,70.15,18.05,91.85,4.58,14.82,9,28.91,17.86,46.77,8.39,16.92,22.13,43.97,50.46,68.6,21.64,18.82,41.66,27.41,45.92,29.2,8.92,3.73,24.43,10.13,45.92,11.62,4.91.34,25.07,1.47,49.98-6.05,17.03-5.14,25.91-9.8,34.45-15.42-7.08,1.4-8.86,1.83-16.21,3.08-1.97,1.08-4.36,2.68-8.03,4.31-34.49,15.25-67.8,8.98-78.33,6.85-35.65-7.2-58.5-26.44-70.72-36.99-24.74-21.36-36.93-43.87-46.63-61.8-15.19-28.06-21.57-51.87-26.65-71.29-7.33-28.07-10.36-52.66-11.67-70.74-1.46.02-2.93-.02-4.4,0Z"/></g></svg>