<?xml version="1.0" encoding="UTF-8"?>
<svg id="Laag_1" data-name="Laag 1" xmlns="http://www.w3.org/2000/svg" xmlns:xlink="http://www.w3.org/1999/xlink" viewBox="0 0 1136.56 1963.22">
  <defs>
    <style>
      .cls-1 {
        fill: url(#Naamloos_verloop_4);
        stroke: #000;
        stroke-linecap: round;
        stroke-linejoin: round;
      }
    </style>
    <linearGradient id="Naamloos_verloop_4" data-name="Naamloos verloop 4" x1="-206.17" y1="1756.06" x2="1314.54" y2="235.34" gradientUnits="userSpaceOnUse">
      <stop offset="0" stop-color="#29abe2"/>
      <stop offset="1" stop-color="#00a99d"/>
    </linearGradient>
  </defs>
  <rect class="cls-1" x=".5" y=".5" width="1135.56" height="1962.22"/>
  <path d="m583.83,824.38c-5.99,86.19,10.66,171.83,62.64,242.34,20.06,27.82,45,51.04,68.29,76.21,19.13,20.58,36.08,44.64,44.68,71.85,12.19,38.9,11.31,84.59-1.42,123.28-30.03,87.45-109.72,108.73-194.06,104.17-43.65-1.02-86.82-11.1-127.37-26.94-81.58-31.84-148.46-91.92-174.37-177.33-17.58-56.9-14.09-117.92-2.78-175.62,14.57-81.94,55.01-158.25,111.74-218.81,11.89-12.79,24.53-24.88,37.78-36.25,0,0,4.09,15.86,4.09,15.86-88.68-17.67-153.83-81.59-189.41-162.68-15.29-34.93-26.76-72.02-29.57-110.26-1.34-16.64-1.05-33.6.29-50.23,12.16-138.93,118.16-268.65,256.94-295.69,43.43-8.31,88.78-6.2,131.19,6.32,90.59,27.43,169.1,95.26,208.1,181.6,27.78,60.38,34.92,127.61,30.44,193.28-2.06,30.54-8.72,60.97-21.43,88.9-2.74,6.06-6.38,13.1-9.58,18.91-3.37,5.73-7.53,12.47-11.33,17.9-44.47,63.9-119.25,101.26-194.87,113.2h0Zm0,0c72.18-13.61,143.27-49.75,186.46-110.58,0,0,2-2.81,2-2.81l1-1.4.93-1.45,3.73-5.8c1.28-1.91,2.38-3.93,3.53-5.91,0,0,3.43-5.97,3.43-5.97,0,0,3.14-6.13,3.14-6.13,2.46-4.5,3.81-8.05,5.86-12.45,11.89-27.4,17.83-57.08,19.31-86.86,3.19-64.06-4.68-129.98-32.56-188.23-45.65-97.65-147.18-173.73-255.52-181.93-92.99-6.92-179.23,37.24-238.38,107.5-51.73,62.7-81.53,144.93-74.89,226.46,2.74,36.05,13.86,71.19,28.33,104.25,24.54,55.5,64.7,105.14,119.6,132.53,18,9.02,37.17,15.62,56.92,19.69,7.41,1.46,9.79,11.08,4.09,15.86-66.74,57.17-117.51,134.2-138.75,219.82-15.19,64.66-23.22,133.93-1.92,198.07,35.92,111.64,148.03,173.71,259.23,187.66,49.13,4.3,102.3,5.86,146.79-18.2,57.45-30.59,77.23-99.05,70.69-160.42-1.33-12.22-4.11-24.83-8.17-36.46-13.74-40.68-46.26-70.1-74.46-101.27-11.58-12.75-22.66-26.05-32.58-40.17-50.6-70.91-66.56-160.29-57.83-245.79h0Z"/>
  <path d="m791.43,679.88c43.79-19.57,85.27-43.19,124.81-69.98,27.13-18.69,54.3-38.28,77.24-61.8,2.63-2.79,5.13-5.69,7.31-8.79,2.59-3.79,5.25-7.84,8.89-11.16,4.31-4.28,11.72-6.72,17.48-2.92,15.24,9.38,14.22,54.75,14.13,71.42-2.04,77.96-20.47,156.62-61.48,223.53-14.99,25.01-32.5,48.44-50.57,71.13-54.86,67.48-124,123.82-200.91,163.06,7.78-5.26,16.22-10.54,23.87-16.03,35.27-24.27,68.57-51.9,99.1-81.89,26.95-26.58,52.05-55.35,74.31-85.99,36.63-49,67.08-103.2,82.01-162.74,11.37-45.37,17.81-92.76,16.33-139.56-.23-4.61-.59-9.19-1.16-13.63-.87-5.81-1.53-11.38-4.28-15.97.5.33,1.34.66,2.02.56.17.02.34,0,.5-.06.2-.01.33-.13.24-.07-3.27,2.12-5.53,5.9-8.06,9.19-2,2.66-4.16,5.17-6.43,7.53-11.1,11.58-23.77,21.49-36.54,30.99-23.36,17.2-48.03,32.58-73.38,46.56-33.75,18.46-68.86,34.66-105.44,46.63h0Z"/>
  <path d="m797.53,1011.63c0,2.11-.03,6.17-.06,8.14.2,8.48,1.09,17.1,2.47,25.44,4.12,22.27,12.44,43.67,24.47,62.74,1.48,2.53,4.13,6.33,5.85,8.77,2.26,3.35,5.43,7.3,7.92,10.49,9.35,11.19,19.63,21.93,32.19,29.54,23.84,14.98,51.65,19.96,79.38,25.05,16.82,3.44,36.93,6.36,49.85,19.16,8.58,8.41,11.45,21.9,8.91,33.29-6.57,30.85-40.77,60.2-64.54,79.14-20.33,15.74-41.66,30.36-64.18,42.7-41.91,22.88-87.78,37.62-134.66,45.32-14.32,2.36-28.77,4.07-43.25,5.07,6.55-1.47,14.85-3.14,21.19-4.74,62.56-14.64,123.67-38.58,175.99-76.09,29.2-21.14,73.5-54.14,88.77-86.58,4.67-10.18,5.3-21.43-4.13-27.98-10.1-7.02-24.82-9.41-37.36-12.29-21.25-4.4-43.87-9.2-64.02-18.7-14.68-6.86-28.4-16.29-39.39-28.29-14.36-15.85-26.37-34.12-34.5-53.87-11.24-27.21-15.78-57.22-10.9-86.3h0Z"/>
  <path d="m553.3,1434.96c-17.79,24.97-39.92,46.91-64.91,64.73-13.74,9.55-28.57,17.61-43.89,24.26-32.62,13.98-77.57,27.28-113.35,21.99-9.98-1.65-21.92-7.18-23.39-18.6-2.7-19.72,26.71-44.27,40.29-56.04,29.1-24.01,60.4-44.62,93.31-62.81-7.09,6.12-14.2,12.18-21.32,18.2-18.68,16.48-94.05,77.26-94.85,98.1,11.21,8.29,47.09,2.34,61.06-.6,66.75-13.79,117.38-42.93,167.05-89.25h0Z"/>
  <path d="m280.58,1009.59c-46.04-23.24-87.83-55.83-120.59-95.81-39.38-48.99-63.93-109.33-72.17-171.54-2.37-18.66-3.46-37.56-2.92-56.36-.06-6.38,7.2-10.54,12.65-7.2,7.32,4.33,14.71,8.55,22.24,12.52,26.41,13.98,54.11,25.49,82.61,34.52,28.83,8.98,58.47,14.6,88.36,19.3-17.38.05-34.79-.92-52.15-2.84-43.67-4.78-86.34-17.9-125.96-36.75-7.95-3.81-15.82-7.81-23.52-12.12,0,0,12.65-7.2,12.65-7.2.09,15.97,1.11,31.93,3.18,47.75,6.01,47.47,20.98,93.81,44.14,135.7,31.24,56.85,79.07,102.55,131.48,140.05h0Z"/>
  <path d="m203.24,539.45c.15-8.64,2.22-17.19,4.2-25.57,8.36-32.92,23.22-65.78,51.89-85.8,10.19-7.25,21.45-13.24,33.77-16.06,10.42-2.23,21.4-1.39,31.59,1.55,53.44,16.11,95.52,77.31,119.03,125.26,7.74,15.78,14.47,32.03,20.39,48.54,0,0-17.33,1.27-17.33,1.27,6.62-34.86,21.23-68.44,43.35-96.33,7.09-9.18,15.6-18.05,24.06-25.98,44.1-41.95,103.6-67.83,163.8-45.35,32.14,11.9,56.93,36.51,78.5,62.14,0,0,2.76,3.38,2.76,3.38,0,0,2.76,3.37,2.76,3.37,2.98,3.53,5.27,7.06,7.85,10.42,22.85,32.97,38.85,71.05,45.99,110.41-1.52-5.49-3.26-10.9-5.09-16.27-11.27-31.85-27.07-62.29-48.07-88.76-6.78-8.48-14.94-17.17-22.55-24.9-23.51-24.37-52.24-46.12-86.47-50.97-50.69-8.45-98.81,20.15-133.06,55.42-21.16,21.15-37.39,47.13-47.44,75.31-3.68,10.3-6.59,20.87-8.74,31.61-1.86,8.93-14.27,9.76-17.31,1.18-13.91-39.86-32.35-78.25-57.82-111.86-20.53-26.88-57.37-64.07-94.06-58.5-9.91,1.8-19.38,6.01-28.05,11.19-29.7,16.99-46.55,48.79-57.46,80.42-2.7,8.09-5.44,16.39-6.48,24.9h0Z"/>
  <path d="m530.91,574.05c17.26-22.77,47.49-33.95,75.61-31.51,24.54,2.9,48.5,15.33,63.99,34.63,4.6,5.81,8.56,12.26,11.01,19.26-2.88-2.31-5.68-4.56-8.51-6.69-5.53-4-11.4-7.99-17.34-11.29-1.18-.72-3.21-1.73-4.46-2.39-1.11-.61-3.35-1.72-4.5-2.24-13.19-6.21-27.59-11.08-41.96-13.12-25.28-2.9-50.59,3.3-73.85,13.34h0Z"/>
  <path d="m398.62,572.01c-19.85-16.6-44.65-27.61-70.8-23.48-27.5,4.23-50.32,25.38-61.97,50.45-1.02,2.2-1.92,4.49-2.95,6.7-.88,2.35-1.68,4.64-2.68,7.02-.3-2.5-.53-5.08-.65-7.63-.08-14.26,4-28.22,11.85-40.29,14.26-22.42,40.59-36.57,67.31-34.46,25.51,1.78,49.87,18.04,59.88,41.67h0Z"/>
  <path d="m437.29,1139.85c-10.69,7.9-9.01,26.32-7.52,38.05,6.66,39.73,24.73,77.69,47.77,110.23,19.52,26.73,42.76,51.04,69.23,70.81,10.48,7.47,26.79,18.64,39.45,18.22,6.3-.35,7.76-8.8,8.65-14.32.74-5.76.78-12.05.31-18.37-2.08-25.81-9.6-51.72-19.18-75.96-19.46-49.12-54.69-94.86-100.46-122.08-10.55-5.67-26.92-13.57-38.26-6.58h0Zm0,0c18.72-11.75,57.51,16.83,72.45,28.63,43.36,34.17,76.89,80.36,93.92,133.2,7.75,23.46,21.04,79.19-8.27,91.87-14.32,5.36-29.27-1.82-41.42-8.88-35.45-22.45-62.64-56.22-84.06-91.57-13.96-23.55-24.31-49.18-32.18-75.31-5.18-18.2-18.1-65.19-.45-77.94h0Z"/>
  <path d="m374.2,698.2c19.27,9.2,39.81,14.83,60.96,16.51,34.61,2.69,69.97-6.13,99.19-24.81,3.74-2.46,8.74,1.22,7.49,5.51-7.37,28.9-27,54.2-53.27,68.49-19.03,10.55-39.66,8.21-58.21-1.69-25.54-13.74-44.46-38.15-56.17-64.01h0Zm0,0c14.68,23.52,34.05,45.53,59.39,57.51,16.53,7.83,34.48,9.33,50.49-.15,23.4-13.53,41.14-36.56,48.12-62.71,0,0,7.49,5.51,7.49,5.51-12.5,7.75-26.04,13.74-40.13,17.77-41.82,12.15-88.81,5.87-125.35-17.93h0Z"/>
  <path d="m374.2,698.2c19.43-14.57,39.71-27.83,60.8-39.85,7.06-3.95,14.22-7.78,21.57-11.3,2.06-1.03,4.45-.92,6.35.07,19.43,10.13,38.25,21.51,56.3,33.93,6.02,4.18,12,8.44,17.8,13.08-24.64-7.29-47.88-18.25-70.86-29.52-3.26-1.59-6.49-3.24-9.72-4.88,0,0,6.35.07,6.35.07-28.51,14-57.88,29.89-88.59,38.4h0Z"/>
  <path d="m463.75,834.56c-20.73,12.37-39.68,27.47-56.33,44.92-7.87,8.6-16.69,17.05-22.03,27.39-.33.72-.52,1.54-.49,1.68,0,.04.01-.03-.03-.13-.02-.14-.15-.31-.27-.47-.3-.29-.43-.26-.29-.24.34.05,1.16,0,1.97-.17,8.4-2.1,16.27-6.67,24.04-10.6,14.19-7.54,28.06-15.79,41.91-23.99,2.88-1.66,5.62,2.34,2.98,4.42-5.71,4.31-11.13,9.04-16.04,14.29-14.92,15.84-25.34,35.67-30.36,56.86,2.74-22.03,12.38-43.17,26.96-59.93,4.88-5.65,10.29-10.85,16.19-15.46l3.02,4.4c-17.13,10.75-34.44,21.47-52.75,30.29-3.73,1.74-7.48,3.41-11.6,4.71-2.47.69-4.43,1.34-7.3,1-10.19-2.78.37-15.18,3.9-19.63,10.55-12.56,22.35-23.73,35.13-33.93,12.76-10.02,26.66-18.65,41.39-25.42h0Z"/>
</svg>